<?xml version="1.0" encoding="utf-8"?>
<!-- Generator: Adobe Illustrator 27.5.0, SVG Export Plug-In . SVG Version: 6.00 Build 0)  -->
<svg version="1.1" xmlns="http://www.w3.org/2000/svg" xmlns:xlink="http://www.w3.org/1999/xlink" x="0px" y="0px"
	 viewBox="0 0 3710 3710" style="enable-background:new 0 0 3710 3710;" xml:space="preserve">
<g id="Background">
	<g>
		<g>
			<rect style="fill:#FFFFFF;" width="3710" height="3710"/>
		</g>
	</g>
</g>
<g id="Illustration">
	<g>
		<linearGradient id="SVGID_1_" gradientUnits="userSpaceOnUse" x1="3597.4158" y1="4061.583" x2="1107.9752" y2="969.8539">
			<stop  offset="0" style="stop-color:#DAE3FE"/>
			<stop  offset="1" style="stop-color:#E9EFFD"/>
		</linearGradient>
		<path style="fill:url(#SVGID_1_);" d="M2912.555,2842.317c-57.182,60.198-111.286,99.019-154.033,129.691
			c-502.482,360.537-1097.052,255.442-1223.415,229.777c-186.598-37.899-547.289-111.157-808.061-417.821
			c-394.527-463.956-333.094-1194.906-27.071-1677.416c55.976-88.259,351.659-578.119,952.633-656.677
			c363.703-47.542,787.663,48.345,1094.684,305.567C3391.755,1295.371,3345.875,2386.131,2912.555,2842.317z"/>
		<g>
			<path style="fill:#91B3FA;" d="M2643.65,1933.374c0,0-106.73-695.213,64.438-1167.432c11.507-31.744,53.49-38.318,73.982-11.482
				C2919.097,933.899,3273.153,1503.135,2643.65,1933.374z"/>
			<path style="opacity:0.5;fill:#FFFFFF;" d="M2690.272,1866.869c-0.936,2.141,2.085,3.705,3.299,1.708
				c44.761-73.6,197.599-408.056,100.03-911.646c-0.313-1.618-2.749-1.296-2.576,0.343
				C2803.742,1078.018,2838.167,1528.295,2690.272,1866.869z"/>
		</g>
		<g>
			<path style="fill:#BDD0FB;" d="M2701.81,2041.652c0,0-10.159-838.59,270.622-1367.593c18.875-35.56,69.539-36.326,89.261-1.228
				C3193.57,907.521,3516.729,1638.59,2701.81,2041.652z"/>
			<path style="opacity:0.5;fill:#FFFFFF;" d="M2767.937,1970.901c-1.461,2.373,1.844,4.721,3.61,2.567
				c65.113-79.438,301.295-448.844,270.019-1059.667c-0.1-1.962-3.03-1.987-3.098-0.024
				C3033.36,1058.453,2998.969,1595.81,2767.937,1970.901z"/>
		</g>
		<g>
			
				<linearGradient id="SVGID_00000113330056039551484510000010678298170663556008_" gradientUnits="userSpaceOnUse" x1="1232.1907" y1="657.3074" x2="1674.6401" y2="1238.9895" gradientTransform="matrix(0.9334 0.3587 -0.3587 0.9334 -630.4039 -263.5654)">
				<stop  offset="0" style="stop-color:#FF928E"/>
				<stop  offset="1" style="stop-color:#FE7062"/>
			</linearGradient>
			<path style="fill:url(#SVGID_00000113330056039551484510000010678298170663556008_);" d="M560.623,825.716l-58.418,2.75
				c-28.894,1.36-51.627,25.17-51.651,54.096l-1.118,1385.749c-0.026,31.556,25.647,57.099,57.202,56.914l401.019-2.343
				L560.623,825.716z"/>
			<path style="fill:#91B3FA;" d="M1260.765,837.733l-739.536-47.261c-15.298-0.978-28.176,11.304-27.924,26.631l23.509,1428.327
				c0.502,30.483,25.751,54.715,56.229,53.963l520.51-12.84L1260.765,837.733z"/>
			<path style="fill:#BDD0FB;" d="M1220.792,867.137l-649.639-93.154c-16.7-2.395-31.621,10.624-31.512,27.495l9.318,1440.389
				c0.132,20.308,16.151,36.954,36.44,37.862l478.67,21.436L1220.792,867.137z"/>
			
				<linearGradient id="SVGID_00000157274510796979214810000008774239185438382725_" gradientUnits="userSpaceOnUse" x1="-108.7682" y1="1114.3568" x2="-981.3005" y2="-194.4402" gradientTransform="matrix(-0.9334 -0.3587 -0.3587 0.9334 1275.5084 469.3546)">
				<stop  offset="0" style="stop-color:#FF928E"/>
				<stop  offset="1" style="stop-color:#FE7062"/>
			</linearGradient>
			<path style="fill:url(#SVGID_00000157274510796979214810000008774239185438382725_);" d="M1392.984,798.214l-712.961-55.497
				c-35.533-2.766-66.033,25.017-66.586,60.653l-22.811,1470.377c-0.462,29.817,23.334,54.364,53.152,54.827l657.971,10.208
				c31.045,0.481,57.046-23.402,59.195-54.376L1458.808,874.5C1461.528,835.314,1432.147,801.262,1392.984,798.214z"/>
			
				<linearGradient id="SVGID_00000128475083495222489820000014753199741815977869_" gradientUnits="userSpaceOnUse" x1="370.8983" y1="792.0652" x2="-544.1588" y2="-580.5189" gradientTransform="matrix(-0.9334 -0.3587 -0.3587 0.9334 1275.5084 469.3546)">
				<stop  offset="0" style="stop-color:#FF928E"/>
				<stop  offset="1" style="stop-color:#FE7062"/>
			</linearGradient>
			<path style="fill:url(#SVGID_00000128475083495222489820000014753199741815977869_);" d="M559.459,1320.056l91.901,1.425
				c5.257,0.082,9.584-4.114,9.666-9.37l6.512-419.746c0.082-5.257-4.114-9.584-9.37-9.666l-91.901-1.425
				c-5.257-0.082-9.584,4.114-9.666,9.37l-6.512,419.746C550.008,1315.647,554.203,1319.974,559.459,1320.056z"/>
		</g>
		<g>
			
				<linearGradient id="SVGID_00000153705339183047684460000017104639597036606655_" gradientUnits="userSpaceOnUse" x1="2140.8367" y1="449.1111" x2="1726.2084" y2="890.928">
				<stop  offset="0" style="stop-color:#FF928E"/>
				<stop  offset="1" style="stop-color:#FE7062"/>
			</linearGradient>
			<path style="fill:url(#SVGID_00000153705339183047684460000017104639597036606655_);" d="M902.094,876.528l-58.418,2.75
				c-28.893,1.36-51.627,25.17-51.651,54.096l-1.118,1385.749c-0.026,31.556,25.647,57.099,57.202,56.915l401.019-2.343
				L902.094,876.528z"/>
			<path style="fill:#91B3FA;" d="M1602.235,888.545l-739.536-47.261c-15.298-0.978-28.176,11.304-27.924,26.631l23.509,1428.327
				c0.502,30.483,25.751,54.715,56.229,53.963l520.51-12.84L1602.235,888.545z"/>
			<path style="fill:#BDD0FB;" d="M1562.262,917.95l-649.639-93.154c-16.7-2.395-31.621,10.624-31.512,27.495l9.318,1440.389
				c0.132,20.308,16.151,36.954,36.44,37.862l478.67,21.436L1562.262,917.95z"/>
			
				<linearGradient id="SVGID_00000067940256891373067970000008330877789209465998_" gradientUnits="userSpaceOnUse" x1="11711.96" y1="-6627.2266" x2="10889.4658" y2="-6110.6187" gradientTransform="matrix(-0.9334 -0.3587 -0.3587 0.9334 1275.5084 469.3546)">
				<stop  offset="0" style="stop-color:#FF928E"/>
				<stop  offset="1" style="stop-color:#FE7062"/>
			</linearGradient>
			<path style="fill:url(#SVGID_00000067940256891373067970000008330877789209465998_);" d="M1734.454,849.026l-712.961-55.497
				c-35.532-2.766-66.033,25.017-66.586,60.653L932.096,2324.56c-0.463,29.818,23.334,54.364,53.152,54.827l657.972,10.208
				c31.045,0.482,57.045-23.402,59.195-54.376l97.864-1409.906C1802.998,886.126,1773.617,852.075,1734.454,849.026z"/>
			
				<linearGradient id="SVGID_00000118370868654390081350000001205401577799363727_" gradientUnits="userSpaceOnUse" x1="12292.248" y1="-6929.8311" x2="11430.8584" y2="-6388.793" gradientTransform="matrix(-0.9334 -0.3587 -0.3587 0.9334 1275.5084 469.3546)">
				<stop  offset="0" style="stop-color:#FF928E"/>
				<stop  offset="1" style="stop-color:#FE7062"/>
			</linearGradient>
			<path style="fill:url(#SVGID_00000118370868654390081350000001205401577799363727_);" d="M900.93,1370.869l91.901,1.426
				c5.257,0.082,9.584-4.114,9.666-9.37l6.512-419.746c0.082-5.257-4.114-9.584-9.37-9.666l-91.901-1.426
				c-5.257-0.082-9.584,4.114-9.666,9.37l-6.512,419.746C891.477,1366.459,895.673,1370.787,900.93,1370.869z"/>
		</g>
		<g>
			<g>
				
					<linearGradient id="SVGID_00000017492863244221228020000009669010914210364838_" gradientUnits="userSpaceOnUse" x1="1987.5931" y1="2847.8503" x2="1860.1526" y2="3694.0569">
					<stop  offset="0" style="stop-color:#09005D"/>
					<stop  offset="1" style="stop-color:#1A0F91"/>
				</linearGradient>
				
					<rect x="1859.499" y="2824.062" style="fill:url(#SVGID_00000017492863244221228020000009669010914210364838_);" width="228.883" height="228.883"/>
				<g>
					
						<linearGradient id="SVGID_00000109747695925969537770000004516543090775940791_" gradientUnits="userSpaceOnUse" x1="2364.2158" y1="806.4024" x2="1767.7947" y2="2733.3064">
						<stop  offset="0" style="stop-color:#09005D"/>
						<stop  offset="1" style="stop-color:#1A0F91"/>
					</linearGradient>
					<path style="fill:url(#SVGID_00000109747695925969537770000004516543090775940791_);" d="M714.588,2823.902
						c0,24.748,20.269,44.997,45.041,44.997h2435.627c24.772,0,45.041-20.249,45.041-44.997l20.267-1399.688
						c0-24.748-29.158-73.064-82.596-69.433l-2380.363-61.591c-31.082-0.805-61.136,11.159-83.146,33.098
						c-22.01,21.939-34.053,51.935-33.319,82.989L714.588,2823.902z"/>
					<path style="fill:#91B3FA;" d="M759.055,2754.992c0,23.045,19.175,41.9,42.611,41.9h2334.853
						c23.436,0,42.612-18.855,42.612-41.9l19.125-1249.444c-2.252-75.189-69.29-102.212-109.927-100.617l-2281.429-60.185
						c-21.837-0.576-42.956,7.691-58.416,22.866c-15.46,15.176-23.904,35.928-23.356,57.402L759.055,2754.992z"/>
					<g>
						<path style="fill:#FFFFFF;" d="M3153.898,2176.614c-0.029,0-0.058,0-0.086,0c-3.191-0.047-5.738-2.675-5.689-5.862
							l1.513-103.046c0.046-3.187,2.663-5.504,5.856-5.689c3.191,0.045,5.739,2.674,5.689,5.862l-1.513,103.046
							C3159.622,2174.083,3157.046,2176.614,3153.898,2176.614z"/>
						<path style="fill:#FFFFFF;" d="M3157.608,1924.093c-0.028,0-0.057,0-0.086,0c-3.19-0.046-5.737-2.675-5.689-5.862
							l5.796-394.674c-0.11-23.586-7.275-42.417-21.298-55.852c-26.131-25.039-67.588-23.742-69.36-23.69l-729.143-19.551
							c-3.187-0.081-5.7-2.738-5.617-5.925c0.084-3.136,2.651-5.62,5.771-5.62c0.052,0,0.103,0,0.157,0.005l728.742,19.552
							c4.522-0.213,48.313-1.015,77.438,26.889c16.369,15.689,24.733,37.304,24.856,64.249l-5.798,394.79
							C3163.332,1921.562,3160.754,1924.093,3157.608,1924.093z"/>
					</g>
				</g>
				
					<linearGradient id="SVGID_00000065788326770624706990000014526192995535538866_" gradientUnits="userSpaceOnUse" x1="2131.8569" y1="2147.9553" x2="1958.5389" y2="3116.5017">
					<stop  offset="0" style="stop-color:#09005D"/>
					<stop  offset="1" style="stop-color:#1A0F91"/>
				</linearGradient>
				<path style="fill:url(#SVGID_00000065788326770624706990000014526192995535538866_);" d="M2514.393,3014.151H1433.071
					c-21.318,0-38.6,16.492-38.6,37.81c0,18.12,14.689,32.019,32.809,32.019h1087.113c18.12,0,31.756-16.143,31.756-34.263v-5.791
					C2546.148,3025.806,2532.512,3014.151,2514.393,3014.151z"/>
			</g>
		</g>
		<g>
			<g>
				
					<linearGradient id="SVGID_00000090264346560551401400000000634325693064981668_" gradientUnits="userSpaceOnUse" x1="101.1924" y1="1514.9919" x2="53.1828" y2="1561.7111" gradientTransform="matrix(1 0.0066 -0.0066 1 772.124 -39.8452)">
					<stop  offset="0" style="stop-color:#53D8FF"/>
					<stop  offset="1" style="stop-color:#3840F7"/>
				</linearGradient>
				<path style="fill:url(#SVGID_00000090264346560551401400000000634325693064981668_);" d="M853.305,1500.616
					c-0.057,8.674-7.135,15.66-15.81,15.602c-8.674-0.057-15.659-7.135-15.602-15.81c0.057-8.674,7.135-15.659,15.81-15.602
					C846.377,1484.864,853.363,1491.942,853.305,1500.616z"/>
				
					<linearGradient id="SVGID_00000142159172023907286660000006807800246467761584_" gradientUnits="userSpaceOnUse" x1="1715.387" y1="64.0859" x2="1919.3027" y2="-119.4382" gradientTransform="matrix(1 0.0066 -0.0066 1 772.124 -39.8452)">
					<stop  offset="0" style="stop-color:#4F52FF"/>
					<stop  offset="1" style="stop-color:#4042E2"/>
				</linearGradient>
				<path style="fill:url(#SVGID_00000142159172023907286660000006807800246467761584_);" d="M852.783,1500.613
					c-0.055,8.385-6.898,15.139-15.284,15.084c-8.386-0.055-15.139-6.898-15.084-15.284c0.055-8.386,6.898-15.139,15.284-15.084
					C846.086,1485.384,852.839,1492.227,852.783,1500.613z"/>
				<path style="fill:#FFFFFF;" d="M823.61,1503.076c-0.07,0-0.139-0.002-0.209-0.007c-1.875-0.115-3.302-1.726-3.186-3.599
					c0.043-0.737,0.136-1.462,0.266-2.169c0.339-1.847,2.114-3.065,3.96-2.725c1.845,0.342,3.067,2.114,2.725,3.961
					c-0.083,0.44-0.136,0.89-0.166,1.348C826.889,1501.687,825.393,1503.076,823.61,1503.076z"/>
				<path style="fill:#FFFFFF;" d="M825.117,1497.521c-0.521,0-1.052-0.119-1.55-0.375c-1.669-0.858-2.327-2.906-1.47-4.575
					c3.02-5.888,9.024-9.399,15.619-9.474c1.062,0.008,2.114,0.111,3.136,0.305c1.845,0.352,3.057,2.131,2.705,3.974
					c-0.349,1.842-2.131,3.057-3.973,2.703c-0.624-0.118-1.268-0.181-1.918-0.186c-0.023,0-0.046,0-0.07,0
					c-3.999,0-7.62,2.21-9.452,5.78C827.54,1496.848,826.352,1497.521,825.117,1497.521z"/>
			</g>
			<g>
				
					<linearGradient id="SVGID_00000180350489804016424060000017928634827441289362_" gradientUnits="userSpaceOnUse" x1="101.8208" y1="1610.201" x2="53.8112" y2="1656.9203" gradientTransform="matrix(1 0.0066 -0.0066 1 772.124 -39.8452)">
					<stop  offset="0" style="stop-color:#53D8FF"/>
					<stop  offset="1" style="stop-color:#3840F7"/>
				</linearGradient>
				<path style="fill:url(#SVGID_00000180350489804016424060000017928634827441289362_);" d="M853.305,1595.83
					c-0.057,8.674-7.135,15.66-15.81,15.603c-8.674-0.057-15.659-7.135-15.602-15.81c0.057-8.674,7.135-15.659,15.81-15.602
					C846.377,1580.077,853.363,1587.156,853.305,1595.83z"/>
				
					<linearGradient id="SVGID_00000181053870410178947950000003308435014325394086_" gradientUnits="userSpaceOnUse" x1="1763.0098" y1="117.0001" x2="1966.9253" y2="-66.5239" gradientTransform="matrix(1 0.0066 -0.0066 1 772.124 -39.8452)">
					<stop  offset="0" style="stop-color:#4F52FF"/>
					<stop  offset="1" style="stop-color:#4042E2"/>
				</linearGradient>
				<path style="fill:url(#SVGID_00000181053870410178947950000003308435014325394086_);" d="M852.783,1595.826
					c-0.055,8.385-6.898,15.139-15.284,15.084c-8.386-0.055-15.139-6.898-15.084-15.284c0.055-8.386,6.898-15.139,15.284-15.084
					C846.086,1580.598,852.839,1587.441,852.783,1595.826z"/>
				<path style="fill:#FFFFFF;" d="M823.61,1598.289c-0.07,0-0.139-0.002-0.209-0.007c-1.875-0.115-3.302-1.726-3.186-3.599
					c0.043-0.737,0.136-1.46,0.266-2.169c0.339-1.844,2.081-3.065,3.96-2.727c1.845,0.34,3.067,2.113,2.725,3.958
					c-0.083,0.443-0.136,0.894-0.166,1.352C826.889,1596.9,825.393,1598.289,823.61,1598.289z"/>
				<path style="fill:#FFFFFF;" d="M825.117,1592.735c-0.521,0-1.052-0.119-1.55-0.375c-1.669-0.858-2.327-2.906-1.47-4.575
					c3.02-5.888,9.024-9.396,15.619-9.474c1.055,0.008,2.107,0.11,3.13,0.302c1.845,0.348,3.06,2.124,2.712,3.969
					c-0.345,1.844-2.117,3.057-3.966,2.712c-0.627-0.118-1.268-0.181-1.925-0.186c-0.023,0-0.046,0-0.073,0
					c-3.999,0-7.617,2.209-9.449,5.78C827.543,1592.061,826.352,1592.735,825.117,1592.735z"/>
			</g>
			<g>
				
					<linearGradient id="SVGID_00000154398737456225463850000018252923065281885314_" gradientUnits="userSpaceOnUse" x1="102.4491" y1="1705.4104" x2="54.4397" y2="1752.1294" gradientTransform="matrix(1 0.0066 -0.0066 1 772.124 -39.8452)">
					<stop  offset="0" style="stop-color:#53D8FF"/>
					<stop  offset="1" style="stop-color:#3840F7"/>
				</linearGradient>
				<path style="fill:url(#SVGID_00000154398737456225463850000018252923065281885314_);" d="M853.305,1691.043
					c-0.057,8.674-7.135,15.66-15.81,15.602c-8.674-0.057-15.659-7.135-15.602-15.81c0.057-8.674,7.135-15.659,15.81-15.602
					C846.377,1675.291,853.363,1682.369,853.305,1691.043z"/>
				
					<linearGradient id="SVGID_00000116201221677812612660000017086974648099324562_" gradientUnits="userSpaceOnUse" x1="1810.634" y1="169.9131" x2="2014.5498" y2="-13.6111" gradientTransform="matrix(1 0.0066 -0.0066 1 772.124 -39.8452)">
					<stop  offset="0" style="stop-color:#4F52FF"/>
					<stop  offset="1" style="stop-color:#4042E2"/>
				</linearGradient>
				<path style="fill:url(#SVGID_00000116201221677812612660000017086974648099324562_);" d="M852.783,1691.04
					c-0.055,8.385-6.898,15.139-15.284,15.083c-8.386-0.055-15.139-6.898-15.084-15.284c0.055-8.386,6.898-15.139,15.284-15.083
					C846.086,1675.811,852.839,1682.654,852.783,1691.04z"/>
				<path style="fill:#FFFFFF;" d="M823.61,1693.501c-0.07,0-0.139-0.002-0.209-0.007c-1.875-0.115-3.302-1.726-3.186-3.599
					c0.043-0.737,0.136-1.459,0.266-2.167c0.339-1.844,2.081-3.065,3.96-2.727c1.845,0.34,3.067,2.113,2.725,3.958
					c-0.083,0.443-0.136,0.893-0.166,1.351C826.889,1692.112,825.393,1693.501,823.61,1693.501z"/>
				<path style="fill:#FFFFFF;" d="M825.117,1687.949c-0.521,0-1.052-0.12-1.55-0.375c-1.669-0.858-2.327-2.906-1.47-4.575
					c3.02-5.888,9.024-9.391,15.619-9.474c1.042,0.007,2.098,0.108,3.13,0.302c1.845,0.349,3.06,2.124,2.712,3.969
					c-0.345,1.845-2.117,3.06-3.966,2.712c-0.657-0.125-1.367-0.164-1.991-0.186c-4.006,0-7.624,2.209-9.456,5.78
					C827.543,1687.275,826.352,1687.949,825.117,1687.949z"/>
			</g>
			<path style="opacity:0.62;fill:#FFFFFF;" d="M877.467,1499.799l0.072,2.675c0.196,7.242,4.719,12.988,10.246,13.016
				l420.667,0.637c5.708,0.029,10.343-6.035,10.333-13.517l0,0c-0.01-7.337-4.489-13.32-10.085-13.468l-420.739-3.312
				C882.053,1485.673,877.258,1492.057,877.467,1499.799z"/>
			<path style="opacity:0.62;fill:#FFFFFF;" d="M877.467,1594.548l0.072,2.675c0.196,7.241,4.719,12.987,10.246,13.015
				l420.667,0.638c5.708,0.029,10.343-6.035,10.333-13.517l0,0c-0.01-7.337-4.489-13.32-10.085-13.468l-420.739-3.313
				C882.053,1580.423,877.258,1586.806,877.467,1594.548z"/>
			<path style="opacity:0.62;fill:#FFFFFF;" d="M877.467,1689.297l0.072,2.675c0.196,7.242,4.719,12.988,10.246,13.015
				l420.667,0.638c5.708,0.029,10.343-6.035,10.333-13.516l0,0c-0.01-7.337-4.489-13.32-10.085-13.468l-420.739-3.313
				C882.053,1675.171,877.258,1681.554,877.467,1689.297z"/>
		</g>
		<g>
			<g>
				
					<linearGradient id="SVGID_00000112592787984695062760000005605670053961893811_" gradientUnits="userSpaceOnUse" x1="2296.71" y1="1217.3729" x2="915.0551" y2="3186.4375">
					<stop  offset="0" style="stop-color:#09005D"/>
					<stop  offset="1" style="stop-color:#1A0F91"/>
				</linearGradient>
				
					<circle style="fill:url(#SVGID_00000112592787984695062760000005605670053961893811_);" cx="1914.243" cy="1762.446" r="411.589"/>
				
					<linearGradient id="SVGID_00000052090682303890926080000006023936137573010319_" gradientUnits="userSpaceOnUse" x1="1527.6454" y1="1229.1788" x2="2263.9761" y2="2238.5295">
					<stop  offset="0" style="stop-color:#4F52FF"/>
					<stop  offset="1" style="stop-color:#4042E2"/>
				</linearGradient>
				
					<circle style="fill:url(#SVGID_00000052090682303890926080000006023936137573010319_);" cx="1923.211" cy="1771.414" r="348.36"/>
				<path style="fill:#BDD0FB;" d="M2029.866,1639.78c0,58.986-47.818,122.666-106.803,122.666
					c-58.986,0-106.804-63.679-106.804-122.666c0-58.986,47.818-100.833,106.804-100.833
					C1982.048,1538.947,2029.866,1580.794,2029.866,1639.78z"/>
				<path style="fill:#BDD0FB;" d="M1790.52,1989.547h260.726c27.445,0,51.744-17.738,60.108-43.879l14.03-43.85
					c10.272-32.107-6.429-66.868-38.089-78.445c-106.105-38.795-215.823-33.817-328.215,3.58
					c-31.486,10.478-48.958,44.156-40.271,76.182l10.803,39.824C1737.07,1970.458,1762.028,1989.547,1790.52,1989.547z"/>
			</g>
			<g>
				<path style="fill:#FFFFFF;" d="M1914.242,2465.984c-387.931,0-703.536-315.605-703.536-703.541
					c0-387.931,315.605-703.536,703.536-703.536c387.933,0,703.538,315.606,703.538,703.536
					C2617.78,2150.379,2302.175,2465.984,1914.242,2465.984z M1914.242,1279.542c-266.272,0-482.902,216.626-482.902,482.902
					c0,266.275,216.63,482.906,482.902,482.906c266.275,0,482.903-216.632,482.903-482.906
					C2397.145,1496.168,2180.516,1279.542,1914.242,1279.542z"/>
				<path style="fill:#7D97F4;" d="M2615.815,1709.811l-220.018,16.508c0.887,11.928,1.348,23.973,1.348,36.125
					c0,57.539-10.133,112.749-28.679,163.967l207.532,74.914c27.019-74.618,41.782-155.055,41.782-238.881
					C2617.78,1744.74,2617.106,1727.191,2615.815,1709.811z"/>
				
					<linearGradient id="SVGID_00000156571982553161849100000000428823009657377456_" gradientUnits="userSpaceOnUse" x1="2390.4844" y1="1246.8301" x2="968.5374" y2="2786.2905">
					<stop  offset="0" style="stop-color:#4F52FF"/>
					<stop  offset="1" style="stop-color:#4042E2"/>
				</linearGradient>
				<path style="fill:url(#SVGID_00000156571982553161849100000000428823009657377456_);" d="M1914.242,2245.35
					c-266.272,0-482.902-216.632-482.902-482.906c0-266.276,216.63-482.902,482.902-482.902c40.568,0,79.971,5.055,117.644,14.519
					l53.75-214c-54.884-13.79-112.293-21.154-171.394-21.154c-387.931,0-703.536,315.606-703.536,703.536
					c0,387.936,315.605,703.541,703.536,703.541c304.107,0,563.74-193.96,661.756-464.66l-207.532-74.914
					C2301.188,2112.215,2122.979,2245.35,1914.242,2245.35z"/>
				
					<linearGradient id="SVGID_00000127007926610139366740000011532727105223847048_" gradientUnits="userSpaceOnUse" x1="2554.7246" y1="1465.8541" x2="2341.1016" y2="1949.6469">
					<stop  offset="0" style="stop-color:#FF928E"/>
					<stop  offset="1" style="stop-color:#FE7062"/>
				</linearGradient>
				<path style="fill:url(#SVGID_00000127007926610139366740000011532727105223847048_);" d="M2395.797,1726.318l220.018-16.508
					c-6.764-91.02-30.937-177.262-69.17-255.431l-198.326,96.614C2374.562,1604.646,2391.154,1663.842,2395.797,1726.318z"/>
			</g>
		</g>
		<g>
			<path style="opacity:0.51;fill:#FFFFFF;" d="M1719.929,2325.899c0,0,116.011-77.341,215.026-123.954
				c43.323-20.395,85.798,29.337,58.045,68.359c-92.5,130.058-258.906,344.093-366.049,365.521
				c-154.964,30.993-278.934-61.985-309.927-154.963c-30.993-92.978-92.978-588.861-61.985-619.853
				c30.992-30.993,92.978,309.927,92.978,309.927s-30.992-588.861,30.993-557.868c27.72,13.86,61.985,526.875,61.985,526.875
				s30.992-588.86,92.978-588.86c30.993,0,30.993,557.868,30.993,557.868s30.992-433.897,92.978-464.89
				C1719.929,1613.068,1657.943,2170.936,1719.929,2325.899z"/>
			<circle style="fill:#FFFFFF;" cx="1532.895" cy="2436.772" r="59.046"/>
			<path style="fill:#FFFFFF;" d="M1532.894,2599.951c-89.984,0-163.186-73.21-163.186-163.186s73.202-163.186,163.186-163.186
				c89.984,0,163.186,73.21,163.186,163.186S1622.879,2599.951,1532.894,2599.951z M1532.894,2289.962
				c-80.945,0-146.803,65.85-146.803,146.803c0,80.953,65.859,146.803,146.803,146.803c80.945,0,146.804-65.85,146.804-146.803
				C1679.698,2355.812,1613.839,2289.962,1532.894,2289.962z"/>
			<path style="fill:#FFFFFF;" d="M1960.978,2259.634c0,16.305-13.218,29.523-29.523,29.523c-16.305,0-29.523-13.218-29.523-29.523
				c0-16.305,13.218-29.523,29.523-29.523C1947.76,2230.111,1960.978,2243.329,1960.978,2259.634z"/>
			<path style="fill:#FFFFFF;" d="M1680.51,1757.744c0,16.305-13.218,29.523-29.523,29.523c-16.305,0-29.523-13.217-29.523-29.523
				c0-16.305,13.218-29.523,29.523-29.523C1667.292,1728.221,1680.51,1741.439,1680.51,1757.744z"/>
			<path style="fill:#FFFFFF;" d="M1547.656,1669.175c0,16.305-13.218,29.523-29.523,29.523c-16.305,0-29.523-13.218-29.523-29.523
				s13.218-29.523,29.523-29.523C1534.439,1639.652,1547.656,1652.87,1547.656,1669.175z"/>
			<path style="fill:#FFFFFF;" d="M1400.041,1742.983c0,16.305-13.217,29.523-29.523,29.523c-16.305,0-29.523-13.218-29.523-29.523
				c0-16.305,13.218-29.523,29.523-29.523C1386.824,1713.459,1400.041,1726.677,1400.041,1742.983z"/>
			<path style="fill:#FFFFFF;" d="M1296.711,1934.881c0,16.305-13.218,29.523-29.523,29.523c-16.305,0-29.523-13.218-29.523-29.523
				s13.218-29.523,29.523-29.523C1283.493,1905.359,1296.711,1918.576,1296.711,1934.881z"/>
			
				<ellipse transform="matrix(0.2298 -0.9732 0.9732 0.2298 -678.7917 3115.4041)" style="fill:#FFFFFF;" cx="1628.844" cy="1986.547" rx="22.142" ry="22.142"/>
			<circle style="fill:#FFFFFF;" cx="1510.753" cy="1942.262" r="22.142"/>
			<path style="fill:#FFFFFF;" d="M1362.243,1970.89c8.647-8.647,22.667-8.647,31.314,0c8.647,8.647,8.647,22.667,0,31.314
				c-8.647,8.647-22.667,8.647-31.314,0C1353.595,1993.557,1353.595,1979.537,1362.243,1970.89z"/>
			
				<ellipse transform="matrix(0.1602 -0.9871 0.9871 0.1602 -964.7642 3014.759)" style="fill:#FFFFFF;" cx="1289.33" cy="2074.352" rx="22.142" ry="22.142"/>
			<path style="fill:#FFFFFF;" d="M1527.575,2501.032l-25.005-558.401c-0.112-1.056-13.367-146.052,7.479-274.761l16.175,2.624
				c-20.518,126.661-7.448,269.577-7.312,271.001l19.302,431.003l82.617-387.663c2.264-125.621,21.918-227.644,22.118-228.652
				l16.079,3.135c-0.192,1.008-19.583,101.703-21.99,227.389L1527.575,2501.032z"/>
			<path style="fill:#FFFFFF;" d="M1518.767,2453.644c-16.174,0-42.996-3.887-73.674-23.966
				c-53.235-34.861-124.877-124.549-163.842-353.954l-22.15-139.556l16.174-2.56l22.142,139.46
				c37.957,223.485,106.143,309.83,156.651,342.899c28.069,18.382,52.379,21.294,65.434,21.31
				c-140.884-248.395-149.715-448.41-149.787-450.426c-6.088-79.001-7.375-242.171-7.391-243.803l16.382-0.128
				c0.016,1.632,1.304,164.242,7.359,243.003c0.096,2.336,9.167,204.431,153.915,454.122l5.464,9.439l-10.575,2.624
				C1534.254,2452.252,1528.407,2453.644,1518.767,2453.644z"/>
			<path style="fill:#FFFFFF;" d="M1613.176,2459.964c-25.574,0-52.796-2.4-81.769-7.744l2.975-16.11
				c277.16,51.1,388.567-177.649,389.663-179.969l14.815,6.976C1937.828,2265.308,1843.084,2459.964,1613.176,2459.964z"/>
		</g>
		<path style="opacity:0.75;fill:#FFFFFF;" d="M3005.705,1981.098c0,0-20.772-13.357-38.5-21.407
			c-7.757-3.522-15.362,5.067-10.393,11.806c16.562,22.462,46.357,59.428,65.541,63.128c27.746,5.353,49.942-10.705,55.492-26.763
			c5.549-16.058,16.648-101.701,11.099-107.054c-5.549-5.353-16.648,53.527-16.648,53.527s5.549-101.701-5.549-96.349
			c-4.964,2.394-11.098,90.996-11.098,90.996s-5.549-101.701-16.648-101.701c-5.549,0-5.549,96.349-5.549,96.349
			s-5.549-74.937-16.647-80.29C3005.705,1857.986,3016.803,1954.334,3005.705,1981.098z"/>
		<g>
			
				<linearGradient id="SVGID_00000139265370119344496960000001954773552503566004_" gradientUnits="userSpaceOnUse" x1="4353.814" y1="1938.1093" x2="4280.1914" y2="2256.2639" gradientTransform="matrix(-1 0 0 1 7138.1045 0)">
				<stop  offset="0" style="stop-color:#FEBBBA"/>
				<stop  offset="1" style="stop-color:#FF928E"/>
			</linearGradient>
			<path style="fill:url(#SVGID_00000139265370119344496960000001954773552503566004_);" d="M2839.922,1962.885l9.064,92.605
				c0,0-52.097,15.691-89.987-11.043l26.636-84.164L2839.922,1962.885z"/>
			<g>
				
					<linearGradient id="SVGID_00000015353810487826021310000011484209569428186253_" gradientUnits="userSpaceOnUse" x1="1643.8428" y1="2559.9849" x2="1513.2263" y2="2732.7795" gradientTransform="matrix(-0.6854 -0.7281 -0.7281 0.6854 5787.1055 1318.7853)">
					<stop  offset="0" style="stop-color:#FEBBBA"/>
					<stop  offset="1" style="stop-color:#FF928E"/>
				</linearGradient>
				<path style="fill:url(#SVGID_00000015353810487826021310000011484209569428186253_);" d="M2779.472,1857.337
					c-1.254,1.18-52.916,102.633-52.916,102.633l58.554,28.268l63.252-88.882
					C2848.363,1899.355,2800.463,1837.576,2779.472,1857.337z"/>
				
					<linearGradient id="SVGID_00000088823121744546085270000000320410516154848142_" gradientUnits="userSpaceOnUse" x1="1544.0892" y1="2601.4814" x2="1700.1118" y2="2601.4814" gradientTransform="matrix(-0.6854 -0.7281 -0.7281 0.6854 5787.1055 1318.7853)">
					<stop  offset="0" style="stop-color:#09005D"/>
					<stop  offset="1" style="stop-color:#1A0F91"/>
				</linearGradient>
				<path style="fill:url(#SVGID_00000088823121744546085270000000320410516154848142_);" d="M2822.454,1901.816
					c1.045,2.703,0.789,5.719-0.702,8.204l-29.204,48.682c-0.443,0.738-0.971,1.406-1.602,1.994
					c-3.476,3.235-15.371,12.647-24.566-0.167c-7.838-10.922-15.191-20.851-23.071-24.946c-4.601-2.392-10.264-0.481-12.6,4.149
					c-4.812,9.537-14.132,28.976-19.987,47.41c-1.468,4.62,0.917,9.58,5.41,11.401c11.856,4.804,35.29,13.491,56.085,16.361
					c3.416,0.472,6.798-0.969,8.831-3.755c8.946-12.256,34.162-46.507,42.768-55.08c7.996-7.966,22.751-4.962,29.402-3.052
					c2.523,0.726,5.211,0.376,7.46-0.979c6.747-4.063,18.52-14.182,7.749-31.314c-2.677-4.26-1.312-9.933,2.891-12.698
					c7.531-4.955,15.705-14.255,7.918-29.316c-7.882-15.245-21.959-16.615-31.546-15.443c-4.242,0.519-8.549-1.706-10.177-5.657
					c-0.723-1.758-2.154-3.256-4.819-3.796c-5.024-1.019-8.323-5.615-7.336-10.647c1.69-8.627,0.417-19.835-13.359-27.409
					c-25.264-13.891-47.395,8.743-53.022,27.849c-5.627,19.107,22.621,32.611,40.39,34.863
					C2812.418,1880.125,2819.575,1894.37,2822.454,1901.816z"/>
				
					<linearGradient id="SVGID_00000103228970584699059930000015144429178820532402_" gradientUnits="userSpaceOnUse" x1="1452.5405" y1="2696.8259" x2="1557.3065" y2="2589.3389" gradientTransform="matrix(-0.6854 -0.7281 -0.7281 0.6854 5787.1055 1318.7853)">
					<stop  offset="0" style="stop-color:#FEBBBA"/>
					<stop  offset="1" style="stop-color:#FF928E"/>
				</linearGradient>
				<path style="fill:url(#SVGID_00000103228970584699059930000015144429178820532402_);" d="M2812.847,1973.947
					c0,0,11.234-32.872,25.615-31.666c14.381,1.207,25.699,15.533,7.877,31.638
					C2824.171,1993.951,2812.847,1973.947,2812.847,1973.947z"/>
			</g>
			
				<linearGradient id="SVGID_00000009576400118132397470000005175335705206316985_" gradientUnits="userSpaceOnUse" x1="-5777.8774" y1="21866.9375" x2="-6039.207" y2="22349.627" gradientTransform="matrix(-1 0 0 1 7138.1045 0)">
				<stop  offset="0" style="stop-color:#4F52FF"/>
				<stop  offset="1" style="stop-color:#4042E2"/>
			</linearGradient>
			<path style="fill:url(#SVGID_00000009576400118132397470000005175335705206316985_);" d="M2749.044,3213.006
				c-0.013-0.782,0.039-1.572,0.24-2.369c11.81-46.82,70.425-75.984,70.425-75.984l23.228,1.821
				c13.354,41.267,11.638,66.577,9.493,77.849c-0.06,0.317-0.155,0.616-0.239,0.923
				C2833.031,3216.958,2793.594,3218.077,2749.044,3213.006z"/>
			<path style="fill:#91B3FA;" d="M2852.191,3215.246c-1.035,3.764-3.814,6.695-7.372,7.443
				c-27.255,5.732-70.575,1.119-88.763-1.259c-4.013-0.524-6.946-4.235-7.013-8.425
				C2793.594,3218.077,2833.031,3216.958,2852.191,3215.246z"/>
			
				<linearGradient id="SVGID_00000172408520291413866120000011202909742977371054_" gradientUnits="userSpaceOnUse" x1="4313.3672" y1="3056.2976" x2="4293.3379" y2="3231.0984" gradientTransform="matrix(-1 0 0 1 7138.1045 0)">
				<stop  offset="0" style="stop-color:#FEBBBA"/>
				<stop  offset="1" style="stop-color:#FF928E"/>
			</linearGradient>
			<path style="fill:url(#SVGID_00000172408520291413866120000011202909742977371054_);" d="M2852.275,3101.879l-9.837,47.357
				c-0.721,3.47-3.388,6.069-6.617,6.372c-3.954,0.371-9.581,0.588-15.241-0.243c-5.076-0.746-8.61-5.903-7.71-11.438l6.838-42.049
				H2852.275z"/>
			<path style="fill:#91B3FA;" d="M2648.451,3214.77c25.652-0.717,38.921-3.738,45.78-6.542c0.016,2.551,0,5.147-0.082,7.836
				c-0.088,2.872-2.216,5.167-4.833,5.151l-140.848-0.909c-4.495-0.029-7.122-5.242-5.174-9.364
				C2561.762,3212.467,2608.796,3215.88,2648.451,3214.77z"/>
			
				<linearGradient id="SVGID_00000003827405342201301310000013399863151933156782_" gradientUnits="userSpaceOnUse" x1="-5634.7979" y1="21944.2871" x2="-5896.126" y2="22426.9746" gradientTransform="matrix(-1 0 0 1 7138.1045 0)">
				<stop  offset="0" style="stop-color:#4F52FF"/>
				<stop  offset="1" style="stop-color:#4042E2"/>
			</linearGradient>
			<path style="fill:url(#SVGID_00000003827405342201301310000013399863151933156782_);" d="M2543.293,3210.941
				c0.17-0.358,0.316-0.724,0.558-1.062c12.439-17.38,44.121-51.989,106.722-67.001l30.033-0.948c0,0,13.372,23.243,13.625,66.298
				c-6.859,2.804-20.128,5.825-45.78,6.542C2608.796,3215.88,2561.762,3212.467,2543.293,3210.941z"/>
			
				<linearGradient id="SVGID_00000022526838973454160570000006726265296615475863_" gradientUnits="userSpaceOnUse" x1="4476.5186" y1="3074.9927" x2="4456.4897" y2="3249.7915" gradientTransform="matrix(-1 0 0 1 7138.1045 0)">
				<stop  offset="0" style="stop-color:#FEBBBA"/>
				<stop  offset="1" style="stop-color:#FF928E"/>
			</linearGradient>
			<path style="fill:url(#SVGID_00000022526838973454160570000006726265296615475863_);" d="M2686.175,3096.417
				c-0.334,2.239-4.45,36.261-6.044,49.453c-0.378,3.135-2.649,5.561-5.511,5.902c-5.114,0.611-13.389,1.167-20.629-0.317
				c-3.905-0.801-6.733-4.552-6.733-8.915v-53.406L2686.175,3096.417z"/>
			
				<linearGradient id="SVGID_00000178204622564677728390000011369269549281890724_" gradientUnits="userSpaceOnUse" x1="-2951.2898" y1="3078.0193" x2="-3065.4082" y2="2519.4407" gradientTransform="matrix(-1 0 0 1 -228.5123 0)">
				<stop  offset="0" style="stop-color:#4F52FF"/>
				<stop  offset="1" style="stop-color:#4042E2"/>
			</linearGradient>
			<path style="fill:url(#SVGID_00000178204622564677728390000011369269549281890724_);" d="M2710.268,2475.512
				c0,0-72.435,275.28-71.126,621.691c0.025,6.316,4.459,11.767,10.639,13.069c9.106,1.918,22.496,4.195,33.578,3.885
				c5.916-0.166,10.862-4.554,11.857-10.389c10.156-59.561,68.443-395.101,101.651-449.575c0,0,21.85,298.847,14.865,453.891
				c-0.173,3.855,2.65,7.199,6.484,7.642c5.814,0.672,15.118,1.182,26.956-0.075c4.495-0.477,8.121-3.875,8.763-8.348
				c7.234-50.409,48.874-350.46,47.104-566.606c-0.1-12.189-32.234-65.186-32.234-65.186H2710.268z"/>
			
				<linearGradient id="SVGID_00000153681409908867615700000002737318205663249341_" gradientUnits="userSpaceOnUse" x1="4293.2114" y1="2001.1123" x2="4134.9014" y2="2291.9614" gradientTransform="matrix(-1 0 0 1 7138.1045 0)">
				<stop  offset="0" style="stop-color:#FF928E"/>
				<stop  offset="1" style="stop-color:#FE7062"/>
			</linearGradient>
			<path style="fill:url(#SVGID_00000153681409908867615700000002737318205663249341_);" d="M2936.067,2236.1
				c19.69-53.885,12.546-118.953,12.472-119.603l-5.426,0.62c0.073,0.639,7.064,64.457-12.178,117.107L2936.067,2236.1z"/>
			
				<linearGradient id="SVGID_00000155834802821278686620000006932201991297729937_" gradientUnits="userSpaceOnUse" x1="4355.231" y1="2542.5776" x2="4301.5176" y2="2638.1692" gradientTransform="matrix(-1 0 0 1 7138.1045 0)">
				<stop  offset="0" style="stop-color:#09005D"/>
				<stop  offset="1" style="stop-color:#1A0F91"/>
			</linearGradient>
			<path style="fill:url(#SVGID_00000155834802821278686620000006932201991297729937_);" d="M2799.531,2647.176
				c1.213,0,2.323-0.815,2.64-2.045c6.007-23.168,50.988-48.628,51.441-48.883c1.314-0.737,1.785-2.403,1.046-3.719
				c-0.74-1.315-2.396-1.785-3.718-1.045c-1.934,1.084-47.468,26.859-54.054,52.275c-0.378,1.46,0.498,2.951,1.958,3.328
				C2799.072,2647.147,2799.305,2647.176,2799.531,2647.176z"/>
			
				<linearGradient id="SVGID_00000076595453584764384670000002249441400125258929_" gradientUnits="userSpaceOnUse" x1="-3001.2996" y1="1867.0842" x2="-3688.0442" y2="2643.928" gradientTransform="matrix(-1 0 0 1 -228.5123 0)">
				<stop  offset="0" style="stop-color:#FF928E"/>
				<stop  offset="1" style="stop-color:#FE7062"/>
			</linearGradient>
			<path style="fill:url(#SVGID_00000076595453584764384670000002249441400125258929_);" d="M3054.488,2017.689
				c0,0,132.144,176.192,56.061,240.261c-76.083,64.07-176.191-40.043-176.191-40.043l12.013-156.169c0,0,7.108,4.153,14.015,14.015
				c22.9,32.697,71.639,105.187,90.098,102.111c24.026-4.004-16.018-152.165-16.018-152.165L3054.488,2017.689z"/>
			
				<linearGradient id="SVGID_00000100356251966139384970000011127246499108164789_" gradientUnits="userSpaceOnUse" x1="-2822.9805" y1="2024.7206" x2="-3509.7266" y2="2801.5659" gradientTransform="matrix(-1 0 0 1 -228.5123 0)">
				<stop  offset="0" style="stop-color:#FF928E"/>
				<stop  offset="1" style="stop-color:#FE7062"/>
			</linearGradient>
			<path style="fill:url(#SVGID_00000100356251966139384970000011127246499108164789_);" d="M2618.014,2045.719
				c0,0,228.248-16.018,328.357,16.018c0,0,8.009,124.135-12.013,180.195c-19.349,54.178-42.438,198.114-43.968,258.321
				c-0.092,3.637-2.555,6.732-6.076,7.651c-20.996,5.484-94.579,21.272-180.071-0.091c-3.579-0.894-6.09-4.11-6.126-7.798
				C2697.821,2469.003,2692.191,2321.235,2618.014,2045.719z"/>
			
				<linearGradient id="SVGID_00000028311457783467566100000011979887220426666926_" gradientUnits="userSpaceOnUse" x1="-2542.1956" y1="1898.1549" x2="-2453.7385" y2="1898.1549" gradientTransform="matrix(-1 0 0 1 -228.5123 0)">
				<stop  offset="0" style="stop-color:#FEBBBA"/>
				<stop  offset="1" style="stop-color:#FF928E"/>
			</linearGradient>
			<path style="fill:url(#SVGID_00000028311457783467566100000011979887220426666926_);" d="M2313.683,1949.615v-50.593
				c0-7.777-5.622-14.413-13.293-15.692l-10.733-1.789c0,0-48.052-44.048-56.061-48.052s-12.013,4.004-4.004,12.013
				c5.829,5.829,22.267,26.51,30.781,37.333c2.897,3.682,2.283,8.965-1.327,11.952c-9.376,7.756-28.801,22.98-25.449,30.802
				C2245.609,1953.62,2289.657,1981.65,2313.683,1949.615z"/>
			
				<linearGradient id="SVGID_00000091713600370678283490000013229043632329390259_" gradientUnits="userSpaceOnUse" x1="-2741.6086" y1="2096.6553" x2="-3428.3555" y2="2873.5015" gradientTransform="matrix(-1 0 0 1 -228.5123 0)">
				<stop  offset="0" style="stop-color:#FF928E"/>
				<stop  offset="1" style="stop-color:#FE7062"/>
			</linearGradient>
			<path style="fill:url(#SVGID_00000091713600370678283490000013229043632329390259_);" d="M2618.014,2045.719
				c0,0-44.685,15.907-96.104,24.026c-76.083,12.013-156.17-32.035-208.226-128.139l-24.026,20.021
				c0,0,84.092,304.331,368.4,204.222L2618.014,2045.719z"/>
			
				<linearGradient id="SVGID_00000072991212070805405530000000000508738890800058_" gradientUnits="userSpaceOnUse" x1="-3224.2268" y1="1883.2985" x2="-3288.2964" y2="2041.47" gradientTransform="matrix(-1 0 0 1 -228.5123 0)">
				<stop  offset="0" style="stop-color:#FEBBBA"/>
				<stop  offset="1" style="stop-color:#FF928E"/>
			</linearGradient>
			<path style="fill:url(#SVGID_00000072991212070805405530000000000508738890800058_);" d="M3014.445,1993.663
				c0,0-14.99-9.992-27.782-16.015c-5.597-2.635-11.085,3.79-7.5,8.832c11.951,16.804,33.451,44.458,47.295,47.226
				c20.022,4.004,36.039-8.008,40.043-20.022s12.013-76.083,8.009-80.087c-4.004-4.005-12.013,40.043-12.013,40.043
				s4.004-76.083-4.004-72.078c-3.582,1.791-8.009,68.074-8.009,68.074s-4.004-76.083-12.013-76.083
				c-4.004,0-4.004,72.078-4.004,72.078s-4.004-56.061-12.013-60.065C3014.445,1901.563,3022.453,1973.641,3014.445,1993.663z"/>
		</g>
	</g>
</g>
</svg>
