<svg width="5096" height="3396" viewBox="0 0 5096 3396" fill="none" xmlns="http://www.w3.org/2000/svg">
<path fill-rule="evenodd" clip-rule="evenodd" d="M4496.12 857.917L4494.76 858.278C4472.14 864.29 4448.24 870.642 4423.26 877.281C4448.74 870.509 4473.1 864.036 4496.12 857.917Z" fill="#4E84E6"/>
<path fill-rule="evenodd" clip-rule="evenodd" d="M4511.72 853.773C4511.46 853.84 4511.21 853.908 4510.95 853.976L4509.54 854.349C4510.27 854.157 4510.99 853.965 4511.72 853.773Z" fill="#4E84E6"/>
<path fill-rule="evenodd" clip-rule="evenodd" d="M4544.68 845.012C4538.02 846.781 4531.22 848.59 4524.27 850.437L4513.33 853.345C4524.11 850.479 4534.57 847.7 4544.68 845.012Z" fill="#558BED"/>
<path d="M3619.99 1091.76C3623.65 1089.99 3735.22 1060.16 4168.95 944.868C4260.2 920.614 4346.8 897.599 4423.26 877.281L4494.76 858.278L4496.12 857.917L4502.39 856.252L4505.52 855.419L4509.54 854.349L4510.95 853.976L4511.72 853.773L4512.95 853.445L4513.33 853.345L4524.27 850.437C4531.22 848.59 4538.02 846.781 4544.68 845.012C4596.81 831.158 4639.78 819.739 4670.45 811.585C4702.78 802.994 4721.46 798.028 4722.84 797.657C4730.61 795.635 4733.39 795.192 4738.39 795.129C4753.24 795.066 4766.32 802.145 4774.48 814.66C4780.17 823.383 4782.57 835.582 4780.48 845.379C4779.09 851.763 4432.21 1843.05 4429.11 1849.44C4425.76 1856.39 4418.56 1863.78 4411.73 1867.32C4397.25 1874.84 4379.37 1873.77 4366.6 1864.48C4364.39 1862.9 4095.12 1612.91 4080.14 1598.56C4078.5 1596.98 4077.3 1596.1 4077.49 1596.67L3884.32 1416.27L3884.32 1416.27C3878.89 1411.72 3609.24 1160.41 3606.84 1157.63C3599.82 1149.54 3596.54 1140.81 3596.54 1130.13C3596.6 1113.13 3605.26 1098.91 3619.99 1091.76Z" fill="#4E84E6"/>
<path d="M3868.02 1525.81C3868.58 1522.02 3871.24 1504.45 3879.39 1451.1C3882.23 1432.13 3884.5 1416.49 3884.32 1416.27L4077.49 1596.67C4077.74 1597.43 4055.55 1608.74 3971.11 1650.84C3896.14 1688.19 3863.46 1704.18 3861.5 1704.44C3854.17 1705.45 3846.33 1700.26 3844.19 1692.93L3843.17 1689.33L3855.31 1609.31C3862.01 1565.32 3867.76 1527.71 3868.02 1525.81Z" fill="#0F3476"/>
<path d="M2080.56 1460.01C2076.58 1460.71 2074.43 1463.11 2074.43 1466.78C2074.43 1469.18 2074.75 1469.94 2076.39 1471.39L2078.35 1473.16L2092.82 1473.67C2100.79 1473.92 2108.37 1474.11 2109.76 1474.17C2116.21 1474.36 2118.23 1463.87 2112.23 1461.47C2108.25 1459.82 2087.45 1458.94 2080.56 1460.01Z" fill="black"/>
<path d="M2004.46 1484.66C1994.98 1490.29 1985.81 1496.55 1984.68 1498.25C1984.17 1498.95 1983.73 1500.72 1983.73 1502.23C1983.73 1505.96 1985.69 1508.11 1989.48 1508.56C1992.32 1508.87 1992.7 1508.68 2000.86 1503.25C2005.53 1500.15 2011.54 1496.36 2014.32 1494.78C2019.38 1491.93 2021.02 1490.04 2021.02 1486.94C2021.02 1484.66 2019.25 1481.82 2017.42 1481C2014.26 1479.54 2011.98 1480.18 2004.46 1484.66Z" fill="black"/>
<path d="M2171.77 1485.93C2169.24 1487 2167.98 1489.15 2167.98 1492.31C2167.98 1495.91 2168.55 1496.61 2174.43 1500.59C2176.95 1502.3 2182.39 1506.47 2186.43 1509.88C2193.51 1515.7 2194.02 1516.01 2196.86 1516.01C2199.08 1516.01 2200.15 1515.63 2201.41 1514.5C2203.37 1512.66 2204.13 1509.38 2203.06 1506.91C2202.05 1504.45 2191.36 1495.47 2181.69 1488.9C2176.51 1485.36 2174.55 1484.79 2171.77 1485.93Z" fill="black"/>
<path d="M1936.89 1544.2C1934.05 1545.28 1916.6 1568.16 1915.78 1571.95C1915.27 1574.23 1916.85 1577.83 1918.81 1578.78C1923.68 1581.12 1925.83 1580.11 1930.7 1573.34C1932.84 1570.31 1937.21 1564.62 1940.3 1560.64C1943.84 1556.15 1946.05 1552.74 1946.24 1551.47C1946.69 1548.63 1944.98 1545.53 1942.33 1544.39C1939.86 1543.38 1939.23 1543.38 1936.89 1544.2Z" fill="black"/>
<path d="M2239.34 1557.04C2238.27 1557.54 2236.87 1558.55 2236.31 1559.37C2234.22 1562.35 2234.92 1564.56 2241.55 1575.68C2244.97 1581.43 2248.44 1587.44 2249.26 1588.96C2250.09 1590.47 2251.54 1592.31 2252.49 1593C2254.32 1594.39 2257.8 1594.58 2259.95 1593.44C2261.53 1592.56 2263.11 1589.59 2263.11 1587.38C2263.11 1584.34 2249.01 1560.13 2245.98 1557.92C2243.76 1556.34 2241.55 1556.02 2239.34 1557.04Z" fill="black"/>
<path d="M1884.43 1628.52C1883.42 1629.09 1882.03 1631.05 1880.76 1633.71C1876.53 1642.49 1870.46 1657.54 1870.14 1659.75C1869.57 1664.68 1874.5 1668.41 1879.05 1666.51C1881.84 1665.31 1882.66 1664.11 1885.63 1656.97C1887.02 1653.49 1889.61 1647.42 1891.38 1643.44C1893.15 1639.52 1894.6 1635.48 1894.6 1634.47C1894.6 1629.03 1889.23 1625.93 1884.43 1628.52Z" fill="black"/>
<path d="M2280.24 1646.92C2276.89 1649.7 2277.01 1650.96 2282.76 1667.9C2287.5 1682.06 2288.07 1683.45 2289.91 1684.53C2290.98 1685.16 2292.5 1685.73 2293.32 1685.73C2296.8 1685.73 2300.4 1682.19 2300.4 1678.77C2300.4 1678.02 2298.25 1671 2295.66 1663.1C2291.74 1651.28 2290.54 1648.43 2289.02 1646.98C2286.43 1644.71 2282.95 1644.64 2280.24 1646.92Z" fill="black"/>
<path d="M1851.18 1722.01C1849.03 1723.78 1848.27 1726.31 1844.61 1743.37C1841.89 1756.33 1842.02 1758.61 1845.93 1760.63C1848.27 1761.83 1850.55 1761.83 1852.82 1760.63C1854.97 1759.55 1855.67 1757.91 1857.25 1750.2C1857.94 1746.91 1859.4 1740.27 1860.41 1735.47C1862.18 1727.7 1862.31 1726.56 1861.55 1724.73C1860.35 1721.94 1859.08 1721 1855.86 1720.68C1853.58 1720.43 1852.82 1720.62 1851.18 1722.01Z" fill="black"/>
<path d="M2307.6 1740.97C2305.08 1742.11 2303.56 1744.26 2303.56 1746.85C2303.56 1747.99 2304.25 1752.92 2305.14 1757.91C2305.96 1762.9 2306.97 1769.35 2307.41 1772.32C2308.11 1777.06 2308.43 1777.95 2310.26 1779.72C2312.66 1782.18 2315.44 1782.43 2318.54 1780.54C2321.76 1778.58 2322.02 1776.49 2320.25 1765.31C2317.4 1747.04 2316.83 1744.51 2315 1742.55C2312.98 1740.4 2310.26 1739.83 2307.6 1740.97Z" fill="black"/>
<path d="M3756.96 1762.15C3755.44 1762.78 3733.83 1778.14 3731.61 1780.1C3726.68 1784.46 3731.8 1793.37 3738.06 1791.47C3740.46 1790.72 3763.85 1774.15 3765.18 1772.2C3768.72 1767.14 3762.65 1759.74 3756.96 1762.15Z" fill="black"/>
<path d="M1837.59 1818.78C1834.24 1820.61 1833.92 1822.19 1833.48 1838.63C1833.04 1855.31 1833.29 1856.96 1836.52 1858.6C1839.42 1860.12 1842.46 1859.8 1844.8 1857.72L1846.88 1855.88L1847.32 1839.58C1847.77 1822.57 1847.58 1821.24 1845.05 1819.16C1843.53 1817.89 1839.49 1817.71 1837.59 1818.78Z" fill="black"/>
<path d="M3663.47 1827C3656.52 1831.74 3650.33 1836.16 3649.76 1836.86C3649.06 1837.68 3648.62 1839.26 3648.62 1841.03C3648.62 1845.01 3651.15 1847.54 3655.07 1847.54C3657.6 1847.54 3659.05 1846.72 3670.93 1838.69C3678.14 1833.76 3684.27 1829.27 3684.65 1828.58C3684.97 1827.94 3685.28 1826.24 3685.28 1824.78C3685.28 1821.06 3682.63 1818.46 3678.83 1818.46C3676.37 1818.46 3674.85 1819.35 3663.47 1827Z" fill="black"/>
<path d="M2317.65 1839.01C2313.92 1840.59 2313.67 1841.91 2313.67 1859.36C2313.67 1873.71 2313.8 1875.22 2314.87 1876.99C2315.63 1878.26 2317.02 1879.33 2318.35 1879.77C2321.45 1880.79 2324.73 1879.65 2326.38 1876.99C2327.45 1875.22 2327.58 1873.71 2327.58 1859.67C2327.58 1843.43 2327.26 1841.22 2324.54 1839.57C2322.52 1838.31 2319.74 1838.06 2317.65 1839.01Z" fill="black"/>
<path d="M3593.95 1873.77C3591.61 1874.72 3569.8 1888.88 3567.97 1890.58C3565.19 1893.17 3565.76 1898.55 3569.04 1900.89C3571.76 1902.78 3574.6 1902.21 3580.42 1898.55C3599.32 1886.6 3602.35 1884.39 3603.05 1881.92C3604.63 1876.3 3599.26 1871.49 3593.95 1873.77Z" fill="black"/>
<path d="M1840.94 1917.45C1837.97 1919.6 1837.65 1921.75 1838.98 1931.04C1841.07 1945.13 1842.71 1953.22 1843.78 1954.8C1847.2 1960.05 1856.05 1957.65 1856.05 1951.52C1856.05 1950.38 1855.67 1947.34 1855.16 1944.75C1854.66 1942.22 1853.71 1936.03 1852.95 1930.97C1851.5 1921.11 1850.48 1918.27 1848.08 1917.13C1845.81 1916.12 1842.65 1916.25 1840.94 1917.45Z" fill="black"/>
<path d="M3510.83 1926.42C3510.26 1926.68 3504.06 1930.4 3497.05 1934.77C3486.68 1941.15 3484.09 1943.05 3483.27 1944.75C3481.88 1947.66 3482.57 1950.69 3484.98 1952.72C3488.58 1955.75 3490.03 1955.31 3505.01 1946.08C3518.54 1937.74 3520.31 1936.22 3520.31 1932.87C3520.31 1928.32 3514.87 1924.65 3510.83 1926.42Z" fill="black"/>
<path d="M2312.28 1937.67C2311.33 1938.18 2310.26 1939.19 2309.82 1939.89C2309.12 1941.21 2304.82 1968.9 2304.82 1972.12C2304.82 1976.23 2310.26 1979.45 2314.3 1977.75C2317.28 1976.55 2318.03 1974.52 2319.61 1964.28C2323.09 1942.16 2323.09 1940.26 2319.23 1937.93C2316.77 1936.47 2314.62 1936.35 2312.28 1937.67Z" fill="black"/>
<path d="M854.835 1966.75C849.779 1967.25 844.785 1967.76 843.648 1967.95C840.74 1968.46 838.401 1971.49 838.401 1974.78C838.465 1977.68 839.097 1978.89 841.688 1980.53C843.268 1981.54 844.09 1981.6 850.853 1980.97C854.962 1980.59 862.104 1980.02 866.782 1979.64C876.01 1978.95 877.527 1978.44 879.234 1975.16C880.624 1972.44 879.929 1969.4 877.464 1967.32C875.631 1965.8 875.188 1965.67 869.752 1965.8C866.592 1965.93 859.892 1966.31 854.835 1966.75Z" fill="black"/>
<path d="M939.407 1966.94C936.942 1968.9 936.057 1972 937.258 1974.78C938.838 1978.63 940.355 1979.14 952.491 1979.96C955.272 1980.15 960.961 1980.59 965.133 1980.97C971.959 1981.67 972.97 1981.6 974.867 1980.65C978.912 1978.51 979.607 1973.13 976.194 1969.85C974.55 1968.27 973.666 1968.08 965.954 1967.25C961.34 1966.81 953.882 1966.24 949.331 1965.99C941.556 1965.61 941.05 1965.67 939.407 1966.94Z" fill="black"/>
<path d="M3413.49 1985.08C3406.03 1989.44 3399.58 1993.49 3399.14 1994.05C3396.93 1996.96 3397.81 2001.7 3400.97 2003.92C3404.07 2006.06 3406.16 2005.37 3419.81 1997.34C3426.95 1993.17 3433.4 1989 3434.22 1988.11C3436.75 1985.27 3435.74 1979.77 3432.39 1978C3428.97 1976.29 3427.46 1976.86 3413.49 1985.08Z" fill="black"/>
<path d="M759.96 1982.68C752.123 1984.7 744.917 1986.79 744.032 1987.42C743.084 1987.99 742.073 1989.57 741.63 1990.96C740.682 1994.18 742.136 1997.47 745.233 1998.92C747.382 1999.93 747.761 1999.87 763.058 1996.14C777.342 1992.6 778.796 1992.16 780.44 1990.39C783.979 1986.47 781.641 1980.02 776.458 1979.33C775.004 1979.14 769.252 1980.28 759.96 1982.68Z" fill="black"/>
<path d="M1038.14 1980.15C1035.67 1981.35 1034.35 1983.5 1034.35 1986.15C1034.35 1988.43 1035.86 1991.34 1037.32 1991.97C1038.9 1992.6 1065.25 1999.36 1067.53 1999.68C1068.6 1999.81 1070.19 1999.68 1071.13 1999.3C1073.03 1998.61 1075.43 1995.26 1075.43 1993.36C1075.43 1991.15 1073.41 1987.99 1071.45 1987.04C1069.81 1986.28 1041.99 1979.01 1040.67 1979.01C1040.48 1979.01 1039.34 1979.52 1038.14 1980.15Z" fill="black"/>
<path d="M672.102 2012.13C657.943 2018.14 652.254 2020.79 650.864 2022.18C647.64 2025.09 648.715 2031.03 652.76 2032.93C653.961 2033.5 655.288 2034 655.731 2034C656.3 2034 672.228 2027.24 684.554 2021.74C685.755 2021.17 686.955 2019.91 687.651 2018.45C688.599 2016.49 688.662 2015.73 688.03 2013.65C687.208 2010.93 684.301 2008.72 681.646 2008.72C680.761 2008.72 676.463 2010.24 672.102 2012.13Z" fill="black"/>
<path d="M1131.69 2010.17C1130.8 2010.62 1129.6 2012.01 1128.9 2013.4C1127.89 2015.42 1127.83 2016.18 1128.46 2018.2C1128.84 2019.53 1129.54 2020.85 1129.98 2021.23C1130.36 2021.55 1134.34 2023.45 1138.77 2025.41C1143.19 2027.37 1149.45 2030.21 1152.67 2031.79C1159.88 2035.27 1162.53 2035.46 1165.25 2032.8C1167.59 2030.4 1167.9 2026.92 1166.01 2023.95C1164.62 2021.74 1138.07 2009.35 1134.78 2009.35C1133.96 2009.35 1132.57 2009.73 1131.69 2010.17Z" fill="black"/>
<path d="M1862.3 2014.34C1859.9 2016.81 1859.9 2018.9 1862.62 2026.8C1867.61 2041.59 1870.65 2048.86 1872.61 2050.69C1874.31 2052.27 1874.88 2052.46 1877.47 2052.14C1879.56 2051.89 1880.76 2051.38 1881.77 2050.18C1884.43 2047.02 1884.3 2046.14 1879.24 2032.55C1876.65 2025.53 1874.19 2018.71 1873.81 2017.44C1872.73 2014.16 1870.46 2012.51 1866.98 2012.51C1864.71 2012.51 1863.82 2012.89 1862.3 2014.34Z" fill="black"/>
<path d="M3339.22 2027.74C3332.01 2031.54 3316.84 2040.07 3315.26 2041.14C3309.76 2045 3312.1 2053.6 3318.61 2053.6C3320.38 2053.6 3324.11 2051.89 3334.16 2046.26C3341.49 2042.28 3347.94 2038.49 3348.57 2037.86C3350.28 2036.15 3350.66 2032.04 3349.33 2029.7C3347.25 2026.23 3343.45 2025.47 3339.22 2027.74Z" fill="black"/>
<path d="M2293 2034C2290.85 2034.89 2289.97 2036.78 2287.12 2046.33C2285.73 2051.19 2283.65 2057.83 2282.64 2060.99C2280.42 2067.76 2280.55 2069.78 2283.46 2072.24C2286.56 2074.9 2291.61 2074.14 2293.57 2070.79C2294.14 2069.84 2296.35 2063.27 2298.57 2056.13C2303.18 2041.27 2303.5 2038.11 2300.97 2035.52C2299.13 2033.75 2295.34 2032.99 2293 2034Z" fill="black"/>
<path d="M589.679 2054.92C584.369 2057.77 565.47 2070.54 564.522 2071.99C561.741 2075.91 564.522 2081.79 569.452 2082.48C571.854 2082.8 572.613 2082.36 582.41 2075.91C588.162 2072.18 594.293 2068.2 596.063 2067.06C601.309 2063.84 602.194 2058.65 598.149 2055.24C595.747 2053.22 593.092 2053.15 589.679 2054.92Z" fill="black"/>
<path d="M1216.83 2058.65C1212.72 2061.94 1213.48 2067 1218.66 2070.79C1220.37 2071.99 1225.99 2076.04 1231.11 2079.76C1236.23 2083.49 1241.23 2086.78 1242.17 2087.03C1244.58 2087.73 1247.67 2086.72 1249.19 2084.82C1250.71 2082.92 1250.9 2079.32 1249.69 2077.17C1248.87 2075.72 1242.62 2070.85 1230.86 2062.57C1224.6 2058.15 1223.15 2057.39 1221 2057.39C1219.42 2057.39 1217.84 2057.89 1216.83 2058.65Z" fill="black"/>
<path d="M3241.63 2080.78C3234.55 2084.57 3227.97 2088.36 3227.09 2089.31C3225.82 2090.57 3225.44 2091.52 3225.44 2093.8C3225.44 2096.26 3225.76 2096.96 3227.53 2098.54C3231.01 2101.63 3232.52 2101.26 3247.5 2093.35C3254.84 2089.56 3261.47 2085.71 3262.29 2084.82C3264.82 2081.98 3263.81 2076.48 3260.46 2074.71C3257.11 2073 3255.03 2073.63 3241.63 2080.78Z" fill="black"/>
<path d="M1902.76 2104.1C1900.48 2106.37 1900.29 2109.66 1902.25 2113.26C1905.73 2119.78 1915.4 2135.01 1917.42 2137.16C1919.32 2139.18 1920.08 2139.56 1922.29 2139.56C1924.31 2139.56 1925.39 2139.12 1926.97 2137.73C1928.74 2136.15 1929.05 2135.45 1928.99 2133.11C1928.99 2130.84 1928.17 2129.07 1923.62 2121.86C1920.65 2117.18 1916.98 2111.24 1915.46 2108.71C1912.24 2103.21 1911.04 2102.27 1907.37 2102.27C1905.16 2102.27 1904.28 2102.65 1902.76 2104.1Z" fill="black"/>
<path d="M511.933 2112.32C510.48 2112.95 499.418 2122.62 491.897 2129.89C487.219 2134.38 486.966 2134.69 486.966 2137.35C486.966 2139.56 487.346 2140.63 488.799 2142.21C490.38 2143.98 491.075 2144.3 493.477 2144.3C496.005 2144.3 496.7 2143.92 500.177 2140.82C502.263 2138.93 507.572 2134.19 511.87 2130.39C516.168 2126.54 520.024 2122.81 520.403 2121.99C520.782 2121.17 521.099 2119.59 521.099 2118.38C521.099 2114.09 515.852 2110.67 511.933 2112.32Z" fill="black"/>
<path d="M1295.71 2118.64C1292.42 2120.03 1290.72 2124.64 1292.3 2127.74C1293.06 2129.07 1302.85 2138.17 1314.55 2148.22C1320.87 2153.72 1329.65 2146.95 1325.23 2140.07C1323.84 2137.85 1303.17 2119.46 1301.21 2118.64C1299.44 2117.94 1297.42 2117.94 1295.71 2118.64Z" fill="black"/>
<path d="M3153.7 2126.22C3146.25 2130.01 3139.55 2133.74 3138.85 2134.5C3137.97 2135.45 3137.59 2136.78 3137.59 2138.74C3137.59 2141.14 3137.9 2141.83 3139.67 2143.41C3143.21 2146.57 3144.85 2146.13 3159.84 2138.55C3167.04 2134.88 3173.68 2131.15 3174.56 2130.33C3175.76 2129.13 3176.14 2128.12 3176.14 2125.91C3176.14 2123.44 3175.83 2122.75 3174.06 2121.17C3170.64 2118.13 3169.06 2118.51 3153.7 2126.22Z" fill="black"/>
<path d="M2259.31 2126.73C2258.11 2127.36 2256.79 2128.56 2256.34 2129.45C2252.68 2136.65 2243.58 2156.25 2243.45 2157.13C2243.2 2159.91 2243.64 2161.3 2245.34 2163.01C2246.86 2164.53 2247.75 2164.84 2250.15 2164.84C2254.26 2164.84 2255.39 2163.45 2261.34 2151.06C2269.17 2134.69 2269.62 2133.49 2268.8 2131.09C2267.34 2126.73 2263.17 2124.83 2259.31 2126.73Z" fill="black"/>
<path d="M3077.73 2163.33C3077.54 2163.52 3072.29 2166.11 3066.1 2169.01C3059.84 2171.98 3053.84 2174.83 3052.7 2175.4C3048.53 2177.42 3047.39 2183.17 3050.61 2186.4C3053.77 2189.56 3055.73 2189.11 3071.09 2181.91C3078.42 2178.37 3085.19 2174.83 3086.07 2173.94C3087.27 2172.74 3087.65 2171.73 3087.65 2169.52C3087.65 2167.05 3087.34 2166.36 3085.57 2164.78C3083.99 2163.33 3082.91 2162.95 3080.83 2162.95C3079.31 2162.95 3077.92 2163.14 3077.73 2163.33Z" fill="black"/>
<path d="M442.089 2182.41C439.94 2183.49 422.748 2203.15 420.852 2206.69C418.323 2211.49 421.357 2216.61 426.919 2216.67C429.511 2216.67 429.953 2216.42 432.735 2213.32C440.572 2204.6 451.002 2191.71 451.381 2190.25C452.771 2184.69 447.083 2179.89 442.089 2182.41Z" fill="black"/>
<path d="M1963.06 2182.35C1959.64 2182.98 1957.05 2188.04 1958.32 2191.39C1958.89 2192.91 1967.42 2202.64 1976.14 2211.81C1979.81 2215.66 1980.57 2216.17 1983.16 2216.48C1985.56 2216.74 1986.32 2216.55 1988.03 2215.09C1990.11 2213.32 1991.12 2210.23 1990.36 2207.82C1990.11 2207.06 1986.63 2202.83 1982.59 2198.41C1978.48 2193.98 1973.61 2188.61 1971.59 2186.46C1969.63 2184.31 1967.61 2182.54 1967.1 2182.54C1966.53 2182.54 1965.78 2182.41 1965.27 2182.29C1964.83 2182.16 1963.82 2182.22 1963.06 2182.35Z" fill="black"/>
<path d="M1367.39 2186.02C1365.24 2187.22 1364.04 2190.12 1364.48 2193.16C1364.86 2195.18 1366.38 2196.89 1375.73 2205.93C1381.74 2211.68 1387.17 2216.67 1387.93 2217.11C1392.23 2219.58 1397.92 2216.61 1398.04 2211.74C1398.11 2208.33 1397.54 2207.63 1384.64 2195.31C1374.53 2185.7 1373.71 2185.07 1371.43 2185.07C1370.11 2185.13 1368.27 2185.51 1367.39 2186.02Z" fill="black"/>
<path d="M2990.31 2204.47C2989.17 2204.73 2970.65 2212.88 2963.57 2216.17C2958.33 2218.63 2957.44 2224.7 2961.8 2228.18C2964.33 2230.26 2967.18 2229.63 2980.01 2223.88C2996 2216.74 2996.57 2216.42 2997.45 2214.46C2998.53 2212.12 2998.4 2209.02 2997.2 2207.25C2996.32 2206.05 2992.46 2203.84 2991.77 2204.09C2991.64 2204.16 2991.01 2204.35 2990.31 2204.47Z" fill="black"/>
<path d="M2211.28 2213.26C2210.39 2213.83 2208.49 2216.04 2207.17 2218.13C2205.78 2220.28 2201.98 2225.77 2198.76 2230.39C2195.6 2234.94 2192.63 2239.49 2192.31 2240.44C2191.43 2242.65 2192.5 2245.94 2194.65 2247.64C2196.23 2248.91 2199.96 2249.35 2202.05 2248.53C2203.18 2248.09 2207.48 2242.27 2215.95 2229.76C2220.69 2222.74 2221.39 2221.41 2221.39 2219.01C2221.33 2213.64 2215.83 2210.48 2211.28 2213.26Z" fill="black"/>
<path d="M2885.7 2249.86C2869.9 2256.56 2868.64 2257.44 2868.64 2261.87C2868.64 2265.53 2870.53 2267.81 2874.07 2268.31C2876.35 2268.57 2878.5 2267.87 2890.51 2262.81C2905.99 2256.37 2907.83 2255.1 2907.83 2250.81C2907.83 2248.97 2907.38 2247.77 2906.12 2246.38C2902.96 2242.9 2901.63 2243.09 2885.7 2249.86Z" fill="black"/>
<path d="M2031.58 2252.07C2030.69 2252.76 2029.62 2254.35 2029.24 2255.48C2027.78 2259.97 2030.06 2262.37 2048.58 2276.21C2056.04 2281.71 2057.49 2282.28 2060.71 2280.7C2065.39 2278.43 2066.21 2272.36 2062.29 2269.33C2055.66 2264.08 2040.87 2252.83 2039.48 2251.94C2037.2 2250.43 2033.6 2250.49 2031.58 2252.07Z" fill="black"/>
<path d="M1437.93 2254.72C1435.84 2256.56 1434.96 2260.1 1436.03 2262.56C1437.11 2265.22 1457.96 2284.43 1460.87 2285.51C1464.1 2286.71 1467.51 2285.32 1468.96 2282.22C1471.05 2277.86 1470.35 2276.72 1458.03 2265.28C1451.9 2259.59 1446.27 2254.6 1445.58 2254.15C1443.36 2252.89 1439.76 2253.14 1437.93 2254.72Z" fill="black"/>
<path d="M381.473 2261.36C380.019 2262.37 368.957 2278.68 365.039 2285.63C363.964 2287.59 363.079 2289.8 363.079 2290.56C363.079 2294.04 366.682 2297.58 370.158 2297.58C373.129 2297.58 375.215 2295.24 383.432 2282.41C390.764 2271.03 391.775 2269.14 391.775 2266.73C391.839 2264.39 391.523 2263.7 389.753 2262.12C387.351 2259.97 383.874 2259.65 381.473 2261.36Z" fill="black"/>
<path d="M2793.8 2287.4C2777.93 2293.66 2776.61 2294.61 2777.18 2299.29C2777.55 2302.57 2778.95 2304.28 2782.04 2305.23C2784.19 2305.86 2785.27 2305.54 2799.42 2300.04C2812.57 2294.92 2814.59 2293.91 2815.61 2292.21C2818.64 2287.28 2815.48 2281.65 2809.73 2281.84C2808.59 2281.9 2801.45 2284.37 2793.8 2287.4Z" fill="black"/>
<path d="M2151.86 2290.44C2151.35 2290.63 2146.3 2295.49 2140.74 2301.31L2130.5 2311.8L2124.81 2308.77C2121.71 2307.12 2118.42 2305.8 2117.47 2305.8C2113.43 2305.8 2110.77 2308.7 2110.77 2313.19C2110.77 2316.54 2113.3 2318.5 2126.96 2325.64C2141.11 2333.04 2143.45 2333.61 2146.87 2330.57C2148.7 2328.93 2149.02 2328.23 2149.02 2325.71C2149.02 2323.18 2148.7 2322.48 2147.06 2320.97C2145.98 2320.02 2144.65 2319.07 2144.21 2318.94C2143.64 2318.75 2146.49 2315.28 2151.92 2309.53C2157.74 2303.33 2160.71 2299.73 2160.96 2298.4C2162.1 2293.28 2156.79 2288.67 2151.86 2290.44Z" fill="black"/>
<path d="M2716.62 2316.35C2715.36 2316.67 2689.25 2325.45 2687.04 2326.34C2686.41 2326.59 2685.52 2327.6 2685.02 2328.61C2682.49 2333.42 2685.52 2338.66 2690.83 2338.66C2693.74 2338.66 2720.73 2329.37 2722.37 2327.85C2727.11 2323.43 2722.82 2314.96 2716.62 2316.35Z" fill="black"/>
<path d="M1512.39 2319.64C1509.79 2321.28 1508.72 2324.69 1509.92 2327.54C1510.87 2329.81 1513.52 2332.15 1526.29 2342.08C1535.52 2349.28 1537.67 2350.23 1541.27 2348.78C1544.31 2347.51 1545.95 2343.03 1544.69 2339.61C1544.43 2339.04 1540.13 2335.38 1535.01 2331.39C1529.96 2327.41 1524.33 2322.99 1522.5 2321.53C1518.45 2318.37 1515.36 2317.81 1512.39 2319.64Z" fill="black"/>
<path d="M331.664 2346.19C330.084 2347.2 328.314 2350.17 322.689 2361.42C318.833 2369.13 315.673 2376.02 315.673 2376.71C315.673 2379.05 317.632 2382.15 319.718 2383.16C321.804 2384.11 324.332 2384.05 326.545 2382.85C327.177 2382.53 330.969 2375.64 335.014 2367.61C341.398 2354.91 342.283 2352.63 341.967 2350.74C341.209 2346 335.773 2343.59 331.664 2346.19Z" fill="black"/>
<path d="M2607.02 2349.47C2591.28 2353.58 2590.02 2354.21 2589.51 2358.64C2589.07 2361.99 2590.96 2364.9 2593.94 2365.78C2595.83 2366.29 2598.36 2365.84 2610.56 2362.68C2618.52 2360.66 2625.73 2358.64 2626.68 2358.26C2628.95 2357.18 2630.6 2353.71 2630.09 2350.99C2629.52 2348.02 2626.49 2345.62 2623.52 2345.68C2622.25 2345.68 2614.79 2347.39 2607.02 2349.47Z" fill="black"/>
<path d="M2202.68 2348.4C2200.91 2350.17 2200.53 2351.05 2200.53 2353.2C2200.53 2357.75 2202.24 2358.83 2217.03 2363.63C2224.11 2365.91 2231.37 2367.99 2233.14 2368.18C2236.05 2368.5 2236.56 2368.37 2238.52 2366.6C2240.35 2364.96 2240.67 2364.26 2240.67 2361.8C2240.67 2357.12 2239.53 2356.43 2222.9 2350.99C2214.88 2348.4 2207.48 2346.25 2206.53 2346.25C2205.46 2346.25 2204.07 2347.01 2202.68 2348.4Z" fill="black"/>
<path d="M2079.3 2356.99C2078.54 2357.31 2075.13 2359.65 2071.71 2362.24C2068.36 2364.77 2062.86 2368.75 2059.51 2371.09C2053.38 2375.32 2051.99 2377.03 2051.99 2380.44C2051.99 2383.48 2055.53 2386.7 2058.82 2386.7C2060.97 2386.7 2062.48 2385.88 2069.37 2381.01C2088.34 2367.49 2089.54 2366.22 2088.08 2361.36C2086.95 2357.69 2082.77 2355.54 2079.3 2356.99Z" fill="black"/>
<path d="M2510.57 2369.32C2503.61 2370.39 2497.29 2371.53 2496.53 2371.78C2494.26 2372.54 2492.55 2375.2 2492.55 2377.98C2492.55 2381.33 2495.77 2384.81 2498.93 2384.81C2503.04 2384.81 2529.53 2380.25 2530.98 2379.37C2531.8 2378.8 2532.88 2377.41 2533.38 2376.15C2534.58 2373.43 2533.7 2370.27 2531.3 2368.37C2529.15 2366.66 2526.18 2366.79 2510.57 2369.32Z" fill="black"/>
<path d="M2300.08 2371.15C2297.55 2372.23 2296.61 2373.49 2296.16 2376.21C2295.72 2379.12 2296.8 2381.77 2299.07 2383.1C2300.84 2384.11 2318.98 2387.02 2327.89 2387.71C2333.2 2388.09 2334.97 2387.33 2336.62 2383.98C2338.77 2379.62 2336.17 2375.07 2331.18 2374.38C2329.73 2374.19 2323.15 2373.3 2316.52 2372.42C2309.94 2371.53 2303.94 2370.71 2303.24 2370.58C2302.55 2370.39 2301.09 2370.65 2300.08 2371.15Z" fill="black"/>
<path d="M1592.28 2377.22C1590.39 2378.74 1589.12 2382.15 1589.63 2384.36C1590.26 2386.76 1592.6 2388.53 1603.53 2395.04C1619.46 2404.53 1620.22 2404.78 1624.07 2402.82C1626.35 2401.62 1627.36 2399.85 1627.36 2397.07C1627.36 2394.35 1626.03 2392.26 1623.32 2390.68C1596.33 2374.63 1595.88 2374.44 1592.28 2377.22Z" fill="black"/>
<path d="M2412.91 2377.79C2397.23 2378.23 2396.66 2378.36 2394.83 2382.21C2393.63 2384.74 2394.33 2388.28 2396.54 2390.24C2397.8 2391.38 2399 2391.44 2414.11 2391.38C2428.2 2391.38 2430.54 2391.19 2432.38 2390.24C2438.32 2387.14 2436.36 2378.36 2429.66 2377.66C2428.27 2377.54 2420.75 2377.6 2412.91 2377.79Z" fill="black"/>
<path d="M1989.1 2411.98C1985.62 2413.69 1979.68 2416.41 1975.83 2417.99C1967.8 2421.47 1966.03 2422.86 1965.65 2426.27C1965.21 2429.68 1967.04 2432.53 1970.33 2433.54C1972.73 2434.23 1973.24 2434.11 1980.63 2430.95C1995.04 2424.75 2002.56 2421.02 2003.51 2419.51C2005.41 2416.54 2005.09 2413.06 2002.75 2410.66C1999.97 2407.88 1996.94 2408.19 1989.1 2411.98Z" fill="black"/>
<path d="M1679.7 2422.54C1675.59 2426.27 1677.04 2431.77 1682.73 2434.17C1690.95 2437.71 1708.39 2443.59 1710.67 2443.59C1712.57 2443.59 1713.7 2443.15 1715.22 2441.76C1716.99 2440.18 1717.31 2439.48 1717.31 2437.08C1717.31 2432.65 1715.85 2431.64 1704.79 2427.79C1699.54 2425.95 1693.22 2423.61 1690.82 2422.67C1685.2 2420.33 1682.23 2420.26 1679.7 2422.54Z" fill="black"/>
<path d="M289.821 2436.45C287.103 2439.04 279.328 2459.14 279.834 2462.3C280.277 2465.08 281.225 2466.28 284.006 2467.42C286.661 2468.56 289.189 2467.99 291.148 2465.84C291.97 2464.89 294.625 2459.2 296.963 2453.13C301.767 2440.81 301.894 2439.23 298.544 2436.38C295.826 2434.11 292.286 2434.17 289.821 2436.45Z" fill="black"/>
<path d="M1898.71 2442.39C1895.62 2443.08 1888.92 2444.35 1883.92 2445.17C1878.93 2446.05 1874.19 2447.13 1873.43 2447.63C1870.14 2449.78 1869.83 2455.35 1872.86 2458.19C1875.01 2460.21 1879.18 2460.15 1891.76 2457.81C1906.3 2455.16 1909.14 2454.33 1910.66 2452.25C1912.62 2449.59 1912.3 2445.86 1910.03 2443.59C1907.56 2441.19 1905.41 2440.93 1898.71 2442.39Z" fill="black"/>
<path d="M1776.03 2447.13C1774.95 2447.63 1773.69 2448.71 1773.31 2449.53C1771.35 2453.07 1773.06 2458.19 1776.53 2459.33C1779.5 2460.28 1793.09 2461.86 1802.01 2462.3C1809.08 2462.68 1809.72 2462.61 1811.3 2461.35C1813.76 2459.39 1814.65 2456.29 1813.45 2453.51C1811.99 2450.04 1810.41 2449.4 1801.69 2448.65C1797.33 2448.27 1790.44 2447.57 1786.39 2447.07C1777.54 2445.93 1778.43 2445.93 1776.03 2447.13Z" fill="black"/>
<path d="M4642.36 928.476C4328.07 1235.76 3843 1689.5 3843 1689.5L3884.25 1416.14L4642.36 928.476Z" fill="#337CEB"/>
<path d="M4642.36 928.476C4328.07 1235.76 3843 1689.5 3843 1689.5L3884.25 1416.14L4642.36 928.476Z" fill="#337CEB"/>
<path d="M4629.5 940C4509.64 1058.52 3977.12 1583.12 3859.47 1699.02C3852.43 1705.96 3841.04 1699.2 3843.03 1689.51L3861.27 1600.78C3861.71 1598.61 3862.87 1596.65 3864.56 1595.2L4629.5 940Z" fill="#337CEB"/>
<path d="M4629.5 940C4509.64 1058.52 3977.12 1583.12 3859.47 1699.02C3852.43 1705.96 3841.04 1699.2 3843.03 1689.51L3861.27 1600.78C3861.71 1598.61 3862.87 1596.65 3864.56 1595.2L4629.5 940Z" fill="#337CEB"/>
</svg>
