<?xml version="1.0" encoding="utf-8"?>
<!-- Generator: Adobe Illustrator 27.5.0, SVG Export Plug-In . SVG Version: 6.00 Build 0)  -->
<svg version="1.1" xmlns="http://www.w3.org/2000/svg" xmlns:xlink="http://www.w3.org/1999/xlink" x="0px" y="0px"
	 viewBox="0 0 500 500" style="enable-background:new 0 0 500 500;" xml:space="preserve">
<g id="Background_Complete">
	<g>
		<g>
			<rect y="382.398" style="fill:#EBEBEB;" width="500" height="0.25"/>
			<rect x="416.779" y="398.494" style="fill:#EBEBEB;" width="18.888" height="0.25"/>
			<rect x="293.054" y="396.75" style="fill:#EBEBEB;" width="29.473" height="0.25"/>
			<rect x="368.667" y="389.208" style="fill:#EBEBEB;" width="47.111" height="0.25"/>
			<rect x="52.459" y="390.888" style="fill:#EBEBEB;" width="10.971" height="0.25"/>
			<rect x="72.333" y="390.888" style="fill:#EBEBEB;" width="38.555" height="0.25"/>
			<rect x="171" y="395.11" style="fill:#EBEBEB;" width="54.147" height="0.25"/>
			<path style="fill:#EBEBEB;" d="M237.014,337.799H43.915c-3.147,0-5.708-2.561-5.708-5.708V60.66c0-3.147,2.561-5.708,5.708-5.708
				h193.099c3.146,0,5.707,2.561,5.707,5.708v271.432C242.721,335.239,240.16,337.799,237.014,337.799z M43.915,55.202
				c-3.01,0-5.458,2.448-5.458,5.458v271.432c0,3.01,2.448,5.458,5.458,5.458h193.099c3.009,0,5.457-2.448,5.457-5.458V60.66
				c0-3.009-2.448-5.458-5.457-5.458H43.915z"/>
			<path style="fill:#EBEBEB;" d="M453.31,337.799H260.212c-3.147,0-5.707-2.561-5.707-5.708V60.66c0-3.147,2.561-5.708,5.707-5.708
				H453.31c3.148,0,5.708,2.561,5.708,5.708v271.432C459.019,335.239,456.458,337.799,453.31,337.799z M260.212,55.202
				c-3.009,0-5.457,2.448-5.457,5.458v271.432c0,3.01,2.448,5.458,5.457,5.458H453.31c3.01,0,5.458-2.448,5.458-5.458V60.66
				c0-3.009-2.448-5.458-5.458-5.458H260.212z"/>
		</g>
		<g>
			<rect x="416.779" y="398.494" style="fill:#EBEBEB;" width="18.888" height="0.25"/>
			<rect x="293.054" y="396.75" style="fill:#EBEBEB;" width="29.473" height="0.25"/>
			<rect x="368.667" y="389.208" style="fill:#EBEBEB;" width="47.111" height="0.25"/>
			<rect x="52.459" y="390.888" style="fill:#EBEBEB;" width="10.971" height="0.25"/>
			<rect x="72.333" y="390.888" style="fill:#EBEBEB;" width="38.555" height="0.25"/>
			<rect x="171" y="395.11" style="fill:#EBEBEB;" width="54.147" height="0.25"/>
		</g>
	</g>
	<g>
		<g>
			<g>
				
					<rect x="381.865" y="162.215" transform="matrix(-1 -1.224647e-16 1.224647e-16 -1 786.7641 329.2112)" style="fill:#E6E6E6;" width="23.033" height="4.781"/>
				
					<rect x="132.143" y="162.215" transform="matrix(-1 -1.224647e-16 1.224647e-16 -1 514.0081 329.2112)" style="fill:#F0F0F0;" width="249.723" height="4.781"/>
			</g>
			<g>
				<polygon style="fill:#F5F5F5;" points="273.79,82.707 334.833,82.707 325.215,162.215 264.172,162.215 				"/>
				<polygon style="fill:#FAFAFA;" points="284.897,93.129 321.205,93.129 314.108,151.792 277.8,151.792 				"/>
			</g>
			<g>
				<polygon style="fill:#F5F5F5;" points="185.315,86.337 259.358,86.337 250.179,162.215 176.136,162.215 				"/>
				<polygon style="fill:#FAFAFA;" points="195.915,96.284 246.351,96.284 239.579,152.268 189.143,152.268 				"/>
			</g>
			<g>
				<polygon style="fill:#F0F0F0;" points="313.627,109.927 364.651,109.927 358.326,162.215 307.302,162.215 				"/>
				<polygon style="fill:#FAFAFA;" points="320.932,116.781 355.688,116.781 351.021,155.361 316.265,155.361 				"/>
			</g>
		</g>
		<path style="fill:#E6E6E6;" d="M435.345,230.725h-31.539c-11.23,0-21.359,8.075-24.008,19.138l-8.331,34.795l-17.119-0.056h-0.054
			c-8.161,0-15.172,5.8-16.704,13.818l-2.281,11.913c-3.445,0.497-6.399,3.127-7.233,6.61h12.098l-14.221,65.457h3.614
			l14.221-65.457h9.946l-14.221,65.457h3.614l14.221-65.457h39.654l14.221,65.457h3.614l-14.221-65.457h9.946l14.221,65.457h3.614
			l-14.221-65.457h-1.487c11.217-0.002,21.335-8.069,23.982-19.12l11.963-49.964C450.775,238.912,444.425,230.725,435.345,230.725z
			 M368.372,297.584c-1.752,7.315-8.451,12.655-15.876,12.655h-12.655l2.123-10.983c1.131-5.906,6.316-10.201,12.33-10.201h0.044
			l16.063,0.053L368.372,297.584z"/>
		<g>
			<g>
				
					<rect x="193.788" y="222.111" transform="matrix(-1 -1.224647e-16 1.224647e-16 -1 422.0029 596.3926)" style="fill:#F0F0F0;" width="34.428" height="152.171"/>
				
					<rect x="70.04" y="374.282" transform="matrix(-1 -1.224647e-16 1.224647e-16 -1 291.6453 756.6803)" style="fill:#F0F0F0;" width="151.564" height="8.116"/>
				<rect x="63.43" y="222.111" style="fill:#F5F5F5;" width="130.358" height="152.171"/>
				<rect x="76.965" y="237.878" style="fill:#F0F0F0;" width="103.287" height="66.086"/>
				<rect x="76.965" y="316.503" style="fill:#F0F0F0;" width="103.287" height="42.011"/>
				<path style="fill:#F5F5F5;" d="M101.801,240.507h53.616c1.421,0,2.583-1.163,2.583-2.583v-0.595
					c0-1.421-1.162-2.583-2.583-2.583h-53.616c-1.421,0-2.583,1.163-2.583,2.583v0.595
					C99.217,239.344,100.38,240.507,101.801,240.507z"/>
				<path style="fill:#F5F5F5;" d="M101.801,319.384h53.616c1.421,0,2.583-1.162,2.583-2.583v-0.595
					c0-1.421-1.162-2.583-2.583-2.583h-53.616c-1.421,0-2.583,1.162-2.583,2.583v0.595
					C99.217,318.221,100.38,319.384,101.801,319.384z"/>
			</g>
		</g>
		<path style="fill:#E6E6E6;" d="M329.259,230.725H297.72c-11.229,0-21.359,8.075-24.008,19.138l-8.331,34.795l-17.119-0.056h-0.054
			c-8.161,0-15.172,5.8-16.704,13.818l-2.281,11.913c-3.445,0.497-6.399,3.127-7.233,6.61h12.098l-14.221,65.457h3.614
			l14.221-65.457h9.946l-14.221,65.457h3.614l14.221-65.457h39.654l14.221,65.457h3.614l-14.221-65.457h9.946l14.221,65.457h3.614
			l-14.221-65.457h-1.487c11.217-0.002,21.335-8.069,23.982-19.12l11.963-49.964C344.69,238.912,338.339,230.725,329.259,230.725z
			 M262.286,297.584c-1.752,7.315-8.451,12.655-15.876,12.655h-12.655l2.123-10.983c1.131-5.906,6.316-10.201,12.33-10.201h0.044
			l16.063,0.053L262.286,297.584z"/>
	</g>
</g>
<g id="Background_Simple" style="display:none;">
	<g style="display:inline;">
		<path style="fill:#407BFF;" d="M370.252,241.675c-4.591-57.793-53.392-112.632-107.878-138.941
			c-75.774-36.587-148.726-35.89-173.281,31.305c-23.724,64.921,15.515,93.451,98.391,128.757
			C266.785,296.581,375.848,312.129,370.252,241.675z"/>
		<path style="opacity:0.9;fill:#FFFFFF;" d="M370.252,241.675c-4.591-57.793-53.392-112.632-107.878-138.941
			c-75.774-36.587-148.726-35.89-173.281,31.305c-23.724,64.921,15.515,93.451,98.391,128.757
			C266.785,296.581,375.848,312.129,370.252,241.675z"/>
	</g>
</g>
<g id="Shadow_1_">
	<ellipse id="_x3C_Path_x3E__325_" style="fill:#F5F5F5;" cx="250" cy="416.238" rx="193.889" ry="11.323"/>
</g>
<g id="Character_1_">
	<g>
		<path style="fill:#263238;" d="M150.926,108.01c0.691-12.086,26.258-10.89,31.278,0.394c5.02,11.285,0.894,21.641,14.826,28.458
			c24.625,12.049,27.307,27.941,17.986,43.631c-9.32,15.689-45.671,26.672-65.447,0.968c-19.507-25.354,10.147-30.98-5.195-42.927
			C130.964,128.091,132.143,109.457,150.926,108.01z"/>
		<path style="fill:#FFC3BD;" d="M139.999,166.211c-0.329,0.404-0.505,0.598-0.743,0.864c-0.227,0.258-0.443,0.477-0.666,0.716
			c-0.446,0.454-0.896,0.894-1.351,1.309c-0.907,0.847-1.838,1.627-2.781,2.389c-1.901,1.499-3.883,2.845-5.925,4.068
			c-2.029,1.248-4.149,2.302-6.276,3.315c-1.075,0.478-2.147,0.963-3.239,1.393l-1.641,0.631l-0.82,0.314
			c-0.391,0.148-0.933,0.324-1.47,0.431c-1.086,0.236-2.527,0.22-3.826-0.261c-1.32-0.471-2.294-1.322-2.965-2.104
			c-1.323-1.611-1.784-3.051-2.194-4.382c-0.73-2.665-0.886-5.063-0.964-7.442c-0.101-4.743,0.366-9.245,1.17-13.807l4.48,0.376
			c0.176,4.307,0.485,8.728,1.101,12.854c0.317,2.045,0.748,4.089,1.382,5.665c0.289,0.767,0.717,1.426,0.876,1.489
			c0.072,0.035-0.004-0.094-0.26-0.218c-0.246-0.121-0.533-0.101-0.537-0.118c0.006-0.017-0.009-0.018,0.116-0.076l0.714-0.342
			l1.426-0.682l2.801-1.44c1.827-1.019,3.64-2.056,5.362-3.202c1.722-1.145,3.402-2.336,4.977-3.612
			c0.787-0.634,1.564-1.28,2.284-1.951c0.37-0.33,0.709-0.674,1.051-1.005l0.487-0.489l0.364-0.383L139.999,166.211z"/>
		<g>
			<path style="fill:#407BFF;" d="M140.197,152.21c-3.667-0.899-13.009,11.181-13.009,11.181l5.67,10.794
				c0,0,15.676-8.854,15.085-13.728C147.328,155.382,145.547,153.522,140.197,152.21z"/>
			<path style="opacity:0.2;" d="M140.197,152.21c-3.667-0.899-13.009,11.181-13.009,11.181l5.67,10.794
				c0,0,15.676-8.854,15.085-13.728C147.328,155.382,145.547,153.522,140.197,152.21z"/>
		</g>
		<path style="opacity:0.2;" d="M137.774,156.386l0.898,14.134c-3.119,2.132-5.81,3.661-5.81,3.661l-1.186-2.257L137.774,156.386z"
			/>
		<path style="fill:#FFC3BD;" d="M110.078,157.007l4.133-9.198l-8.781,2.094c0,0-1.515,5.495,1.157,8.04L110.078,157.007z"/>
		<polygon style="fill:#FFC3BD;" points="113.705,141.225 106.162,141.851 105.43,149.902 114.212,147.809 		"/>
		<polygon style="fill:#FFC3BD;" points="148.332,402.585 139.482,402.931 137.909,382.372 146.759,382.026 		"/>
		<polygon style="fill:#FFC3BD;" points="227.139,326.985 221.373,333.733 203.89,322.548 209.657,315.8 		"/>
		<path style="fill:#263238;" d="M219.432,333.348l5.285-8.457c0.192-0.308,0.562-0.424,0.89-0.279l7.294,3.218
			c0.757,0.334,1.04,1.341,0.585,2.043c-1.893,2.917-2.954,4.23-5.279,7.949c-1.43,2.288-3.75,6.966-5.725,10.126
			c-1.931,3.09-5.204,1.376-4.665-0.117c2.418-6.692,1.719-9.904,1.292-12.935C219.032,334.349,219.151,333.798,219.432,333.348z"/>
		<path style="fill:#263238;" d="M139.188,402.406l9.604-2.69c0.349-0.098,0.701,0.065,0.846,0.393l3.222,7.292
			c0.334,0.756-0.135,1.692-0.945,1.904c-3.364,0.88-5.033,1.135-9.256,2.318c-2.598,0.728-10.191,4.15-13.905,4.443
			c-3.633,0.286-4.202-3.365-2.682-3.819c6.818-2.038,10.109-6.388,11.835-8.915C138.217,402.876,138.676,402.549,139.188,402.406z"
			/>
		<g style="opacity:0.2;">
			<polygon points="137.911,382.378 138.721,392.975 147.574,392.628 146.765,382.031 			"/>
			<polygon points="209.663,315.801 203.894,322.553 212.908,328.315 218.677,321.563 			"/>
		</g>
		<g>
			<path style="fill:#407BFF;" d="M135.565,155.904c-0.857,5.018-1.676,17.698,2.01,47.213l35.984,2.222
				c0.282-13.797,0.974-24.916,8.472-51.59c0.789-2.808-1.206-5.648-4.118-5.821c-2.741-0.163-6.196-0.269-9.708-0.117
				c-6.116,0.265-11.131,0.528-16.553,1.501c-4.673,0.838-9.779,2.134-12.755,2.932
				C137.162,152.709,135.868,154.134,135.565,155.904z"/>
			<path style="opacity:0.2;" d="M135.565,155.904c-0.857,5.018-1.676,17.698,2.01,47.213l35.984,2.222
				c0.282-13.797,0.974-24.916,8.472-51.59c0.789-2.808-1.206-5.648-4.118-5.821c-2.741-0.163-6.196-0.269-9.708-0.117
				c-6.116,0.265-11.131,0.528-16.553,1.501c-4.673,0.838-9.779,2.134-12.755,2.932
				C137.162,152.709,135.868,154.134,135.565,155.904z"/>
		</g>
		<path style="fill:#263238;" d="M137.575,203.117c0,0-11.204,67.819-12.292,94.874c-1.132,28.141,11.523,92.142,11.523,92.142
			h12.003c0,0-4.377-61.1-1.613-88.636c3.013-30.018,16.729-96.753,16.729-96.753L137.575,203.117z"/>
		<polygon style="fill:#407BFF;" points="149.85,390.564 135.766,390.564 134.733,386.071 150.505,385.522 		"/>
		<path style="opacity:0.2;" d="M152.048,221.057c-9.936,17.234-4.876,50.104-2.496,62.364c2.722-18.024,6.792-40.01,9.903-56.149
			C158.685,217.985,156.63,213.112,152.048,221.057z"/>
		<path style="fill:#263238;" d="M147.078,203.704c0,0,4.975,81.24,11.201,92.478c9.867,17.811,51.677,32.43,51.677,32.43
			l7.864-9.203c0,0-26.183-21.773-40.028-34.142c-3.291-22.469,8.341-57.931-4.232-79.927L147.078,203.704z"/>
		<path style="fill:#407BFF;" d="M174.228,203.261l0.721,3.278c0.111,0.258-0.201,0.494-0.617,0.468l-37.035-2.287
			c-0.324-0.02-0.583-0.195-0.591-0.401l-0.126-3.241c-0.009-0.225,0.284-0.396,0.639-0.374l36.439,2.251
			C173.927,202.971,174.157,203.095,174.228,203.261z"/>
		<g>
			<path style="fill:#263238;" d="M169.083,207.033l0.976,0.06c0.194,0.012,0.349-0.079,0.343-0.202l-0.199-4.213
				c-0.006-0.123-0.17-0.234-0.364-0.246l-0.976-0.06c-0.194-0.012-0.349,0.079-0.343,0.202l0.199,4.213
				C168.725,206.911,168.888,207.021,169.083,207.033z"/>
			<path style="fill:#263238;" d="M140.019,205.238l0.976,0.06c0.194,0.012,0.349-0.079,0.343-0.202l-0.199-4.213
				c-0.006-0.123-0.17-0.234-0.364-0.246l-0.976-0.06c-0.194-0.012-0.349,0.079-0.343,0.202l0.199,4.213
				C139.66,205.116,139.824,205.226,140.019,205.238z"/>
			<path style="fill:#263238;" d="M154.551,206.136l0.976,0.06c0.194,0.012,0.349-0.079,0.343-0.202l-0.199-4.213
				c-0.006-0.123-0.17-0.234-0.364-0.246l-0.976-0.06c-0.194-0.012-0.349,0.079-0.343,0.202l0.199,4.213
				C154.193,206.013,154.356,206.124,154.551,206.136z"/>
		</g>
		<polygon style="fill:#407BFF;" points="218.81,318.374 209.054,329.791 204.426,327.94 215.297,313.992 		"/>
		<g>
			<g>
				<path style="fill:#407BFF;" d="M140.048,183.05c-2.338,0.51-3.935,2.552-4.001,4.843c-0.112-0.228-0.238-0.451-0.386-0.656
					c-0.185-0.273-0.397-0.53-0.637-0.761c-0.25-0.238-0.514-0.442-0.794-0.621c-0.279-0.18-0.574-0.335-0.893-0.453
					c-0.308-0.121-0.632-0.217-0.959-0.272c-0.327-0.064-0.668-0.095-0.991-0.087c-0.342,0.012-0.68,0.044-0.999,0.114
					c-0.329,0.072-0.65,0.184-0.957,0.313c-0.307,0.129-0.594,0.297-0.874,0.494c-0.274,0.185-0.531,0.398-0.761,0.637
					c-0.229,0.248-0.442,0.514-0.621,0.794c-0.18,0.279-0.335,0.574-0.453,0.893c-0.121,0.309-0.207,0.631-0.272,0.959
					c-0.055,0.325-0.085,0.667-0.075,0.999c0,0.67,0.146,1.338,0.424,1.946c0.129,0.307,0.297,0.594,0.484,0.878
					c0.195,0.271,0.407,0.528,0.646,0.757c0.238,0.231,0.504,0.444,0.784,0.624c0.279,0.179,0.584,0.332,0.893,0.452
					c0.308,0.122,0.63,0.208,0.959,0.272c0.251,0.039,0.5,0.052,0.749,0.064c-2.046,1.017-3.233,3.313-2.724,5.647
					c0.505,2.314,2.506,3.917,4.763,4.01c-2.011,1.034-3.163,3.324-2.661,5.628c0.505,2.315,2.506,3.918,4.756,4.023
					c-2.001,1.032-3.154,3.322-2.651,5.627c0.511,2.344,2.549,3.934,4.836,4.001c-0.825,0.408-1.546,1.019-2.045,1.798
					c-0.18,0.279-0.333,0.584-0.453,0.893c-0.122,0.308-0.208,0.63-0.27,0.968c-0.055,0.325-0.088,0.656-0.077,0.989
					c0.002,0.679,0.146,1.338,0.424,1.946c0.129,0.307,0.299,0.604,0.484,0.876c0.195,0.272,0.407,0.529,0.646,0.758
					c0.24,0.241,0.504,0.444,0.786,0.634c1.13,0.725,2.533,0.974,3.85,0.686c0.319-0.07,0.641-0.172,0.946-0.311
					c0.307-0.129,0.603-0.299,0.877-0.483c0.272-0.196,0.529-0.408,0.758-0.647c0.238-0.25,0.442-0.514,0.621-0.794
					c0.18-0.279,0.335-0.574,0.453-0.893c0.122-0.308,0.217-0.632,0.272-0.959c0.049-0.249,0.068-0.504,0.076-0.759
					c1.013,2.056,3.316,3.25,5.656,2.74c2.325-0.507,3.933-2.531,4.021-4.808c1.02,2.036,3.324,3.206,5.648,2.699
					c2.325-0.507,3.933-2.531,4.012-4.806c1.029,2.034,3.333,3.204,5.658,2.697c2.315-0.505,3.923-2.529,4.011-4.806
					c1.019,2.036,3.323,3.206,5.648,2.699c2.325-0.507,3.932-2.531,4.022-4.808c1.019,2.036,3.323,3.206,5.648,2.699
					c2.339-0.51,3.937-2.555,4.001-4.846c0.114,0.229,0.237,0.453,0.386,0.659c0.184,0.274,0.407,0.529,0.646,0.758
					c0.24,0.241,0.504,0.444,0.786,0.634c0.279,0.179,0.584,0.332,0.893,0.452c0.308,0.122,0.63,0.208,0.958,0.273
					c0.326,0.054,0.667,0.084,0.999,0.074c0.335,0,0.671-0.041,0.99-0.111c0.329-0.072,0.652-0.174,0.956-0.314
					c0.306-0.129,0.594-0.297,0.877-0.483c0.272-0.196,0.528-0.408,0.758-0.647c0.228-0.248,0.442-0.514,0.621-0.794
					c0.18-0.279,0.335-0.574,0.454-0.893c0.121-0.308,0.217-0.632,0.272-0.959c0.064-0.327,0.085-0.666,0.085-1.001
					c-0.009-0.333-0.052-0.669-0.121-0.987c-0.072-0.329-0.173-0.652-0.303-0.959c-0.14-0.304-0.297-0.594-0.492-0.865
					c-0.188-0.284-0.41-0.538-0.648-0.768c-0.238-0.231-0.502-0.435-0.784-0.623c-0.279-0.18-0.585-0.333-0.893-0.454
					c-0.309-0.121-0.63-0.208-0.959-0.272c-0.247-0.039-0.492-0.06-0.737-0.068c2.045-1.018,3.222-3.304,2.712-5.642
					c-0.503-2.306-2.493-3.91-4.753-4.012c2.012-1.035,3.153-3.323,2.648-5.638c-0.503-2.305-2.493-3.909-4.753-4.011
					c2.012-1.035,3.156-3.313,2.651-5.627c-0.509-2.334-2.538-3.93-4.826-4.001c0.221-0.114,0.442-0.229,0.653-0.369
					c0.272-0.195,0.528-0.407,0.758-0.646c0.23-0.238,0.444-0.504,0.623-0.783c0.18-0.28,0.333-0.585,0.453-0.894
					c0.121-0.308,0.217-0.632,0.272-0.958c0.062-0.338,0.084-0.667,0.085-1.002c-0.009-0.333-0.042-0.671-0.114-0.999
					c-0.285-1.308-1.104-2.478-2.235-3.203c-1.13-0.725-2.535-0.984-3.852-0.696c-0.319,0.07-0.639,0.181-0.946,0.311
					c-0.307,0.129-0.603,0.299-0.875,0.494c-0.273,0.185-0.53,0.397-0.76,0.636c-0.229,0.248-0.442,0.514-0.621,0.794
					c-0.18,0.279-0.335,0.574-0.454,0.893c-0.121,0.309-0.218,0.633-0.272,0.959c-0.05,0.249-0.068,0.504-0.076,0.76
					c-1.013-2.057-3.316-3.25-5.656-2.74c-2.325,0.507-3.933,2.53-4.023,4.798c-1.018-2.026-3.322-3.196-5.647-2.688
					c-2.325,0.507-3.933,2.53-4.013,4.795c-1.017-2.026-3.321-3.196-5.646-2.689c-2.325,0.507-3.933,2.53-4.023,4.798
					c-1.018-2.026-3.322-3.196-5.647-2.688c-2.324,0.507-3.932,2.53-4.013,4.795C144.678,183.712,142.374,182.543,140.048,183.05z"
					/>
				<path style="opacity:0.7;fill:#FFFFFF;" d="M140.048,183.05c-2.338,0.51-3.935,2.552-4.001,4.843
					c-0.112-0.228-0.238-0.451-0.386-0.656c-0.185-0.273-0.397-0.53-0.637-0.761c-0.25-0.238-0.514-0.442-0.794-0.621
					c-0.279-0.18-0.574-0.335-0.893-0.453c-0.308-0.121-0.632-0.217-0.959-0.272c-0.327-0.064-0.668-0.095-0.991-0.087
					c-0.342,0.012-0.68,0.044-0.999,0.114c-0.329,0.072-0.65,0.184-0.957,0.313c-0.307,0.129-0.594,0.297-0.874,0.494
					c-0.274,0.185-0.531,0.398-0.761,0.637c-0.229,0.248-0.442,0.514-0.621,0.794c-0.18,0.279-0.335,0.574-0.453,0.893
					c-0.121,0.309-0.207,0.631-0.272,0.959c-0.055,0.325-0.085,0.667-0.075,0.999c0,0.67,0.146,1.338,0.424,1.946
					c0.129,0.307,0.297,0.594,0.484,0.878c0.195,0.271,0.407,0.528,0.646,0.757c0.238,0.231,0.504,0.444,0.784,0.624
					c0.279,0.179,0.584,0.332,0.893,0.452c0.308,0.122,0.63,0.208,0.959,0.272c0.251,0.039,0.5,0.052,0.749,0.064
					c-2.046,1.017-3.233,3.313-2.724,5.647c0.505,2.314,2.506,3.917,4.763,4.01c-2.011,1.034-3.163,3.324-2.661,5.628
					c0.505,2.315,2.506,3.918,4.756,4.023c-2.001,1.032-3.154,3.322-2.651,5.627c0.511,2.344,2.549,3.934,4.836,4.001
					c-0.825,0.408-1.546,1.019-2.045,1.798c-0.18,0.279-0.333,0.584-0.453,0.893c-0.122,0.308-0.208,0.63-0.27,0.968
					c-0.055,0.325-0.088,0.656-0.077,0.989c0.002,0.679,0.146,1.338,0.424,1.946c0.129,0.307,0.299,0.604,0.484,0.876
					c0.195,0.272,0.407,0.529,0.646,0.758c0.24,0.241,0.504,0.444,0.786,0.634c1.13,0.725,2.533,0.974,3.85,0.686
					c0.319-0.07,0.641-0.172,0.946-0.311c0.307-0.129,0.603-0.299,0.877-0.483c0.272-0.196,0.529-0.408,0.758-0.647
					c0.238-0.25,0.442-0.514,0.621-0.794c0.18-0.279,0.335-0.574,0.453-0.893c0.122-0.308,0.217-0.632,0.272-0.959
					c0.049-0.249,0.068-0.504,0.076-0.759c1.013,2.056,3.316,3.25,5.656,2.74c2.325-0.507,3.933-2.531,4.021-4.808
					c1.02,2.036,3.324,3.206,5.648,2.699c2.325-0.507,3.933-2.531,4.012-4.806c1.029,2.034,3.333,3.204,5.658,2.697
					c2.315-0.505,3.923-2.529,4.011-4.806c1.019,2.036,3.323,3.206,5.648,2.699c2.325-0.507,3.932-2.531,4.022-4.808
					c1.019,2.036,3.323,3.206,5.648,2.699c2.339-0.51,3.937-2.555,4.001-4.846c0.114,0.229,0.237,0.453,0.386,0.659
					c0.184,0.274,0.407,0.529,0.646,0.758c0.24,0.241,0.504,0.444,0.786,0.634c0.279,0.179,0.584,0.332,0.893,0.452
					c0.308,0.122,0.63,0.208,0.958,0.273c0.326,0.054,0.667,0.084,0.999,0.074c0.335,0,0.671-0.041,0.99-0.111
					c0.329-0.072,0.652-0.174,0.956-0.314c0.306-0.129,0.594-0.297,0.877-0.483c0.272-0.196,0.528-0.408,0.758-0.647
					c0.228-0.248,0.442-0.514,0.621-0.794c0.18-0.279,0.335-0.574,0.454-0.893c0.121-0.308,0.217-0.632,0.272-0.959
					c0.064-0.327,0.085-0.666,0.085-1.001c-0.009-0.333-0.052-0.669-0.121-0.987c-0.072-0.329-0.173-0.652-0.303-0.959
					c-0.14-0.304-0.297-0.594-0.492-0.865c-0.188-0.284-0.41-0.538-0.648-0.768c-0.238-0.231-0.502-0.435-0.784-0.623
					c-0.279-0.18-0.585-0.333-0.893-0.454c-0.309-0.121-0.63-0.208-0.959-0.272c-0.247-0.039-0.492-0.06-0.737-0.068
					c2.045-1.018,3.222-3.304,2.712-5.642c-0.503-2.306-2.493-3.91-4.753-4.012c2.012-1.035,3.153-3.323,2.648-5.638
					c-0.503-2.305-2.493-3.909-4.753-4.011c2.012-1.035,3.156-3.313,2.651-5.627c-0.509-2.334-2.538-3.93-4.826-4.001
					c0.221-0.114,0.442-0.229,0.653-0.369c0.272-0.195,0.528-0.407,0.758-0.646c0.23-0.238,0.444-0.504,0.623-0.783
					c0.18-0.28,0.333-0.585,0.453-0.894c0.121-0.308,0.217-0.632,0.272-0.958c0.062-0.338,0.084-0.667,0.085-1.002
					c-0.009-0.333-0.042-0.671-0.114-0.999c-0.285-1.308-1.104-2.478-2.235-3.203c-1.13-0.725-2.535-0.984-3.852-0.696
					c-0.319,0.07-0.639,0.181-0.946,0.311c-0.307,0.129-0.603,0.299-0.875,0.494c-0.273,0.185-0.53,0.397-0.76,0.636
					c-0.229,0.248-0.442,0.514-0.621,0.794c-0.18,0.279-0.335,0.574-0.454,0.893c-0.121,0.309-0.218,0.633-0.272,0.959
					c-0.05,0.249-0.068,0.504-0.076,0.76c-1.013-2.057-3.316-3.25-5.656-2.74c-2.325,0.507-3.933,2.53-4.023,4.798
					c-1.018-2.026-3.322-3.196-5.647-2.688c-2.325,0.507-3.933,2.53-4.013,4.795c-1.017-2.026-3.321-3.196-5.646-2.689
					c-2.325,0.507-3.933,2.53-4.023,4.798c-1.018-2.026-3.322-3.196-5.647-2.688c-2.324,0.507-3.932,2.53-4.013,4.795
					C144.678,183.712,142.374,182.543,140.048,183.05z"/>
			</g>
			<path style="fill:#FFFFFF;" d="M193.639,214.919l-50.372,10.987c-1.003,0.219-1.993-0.417-2.211-1.42l-6.753-30.963
				c-0.219-1.003,0.417-1.993,1.419-2.211l50.372-10.986c1.003-0.219,1.993,0.417,2.211,1.419l6.753,30.963
				C195.277,213.711,194.641,214.701,193.639,214.919z"/>
		</g>
		<path style="fill:#FFC3BD;" d="M181.982,156.567c1.747,4.407,3.272,8.77,4.655,13.253c1.412,4.459,2.66,8.986,3.683,13.621
			c0.134,0.575,0.245,1.164,0.365,1.748l0.177,0.876l0.088,0.438l0.073,0.418c0.025,0.185,0.054,0.331,0.064,0.551
			c0.066,0.747-0.018,1.831-0.505,2.869c-0.479,1.053-1.329,1.874-2.057,2.32c-0.737,0.462-1.4,0.678-1.939,0.808
			c-0.556,0.134-1.04,0.194-1.48,0.225c-1.747,0.1-3.058-0.116-4.359-0.34c-1.283-0.247-2.484-0.565-3.661-0.906
			c-4.683-1.404-8.965-3.24-13.206-5.402l1.603-4.201c4.388,1.025,8.871,2.064,13.155,2.737c1.067,0.166,2.125,0.293,3.122,0.358
			c0.976,0.077,1.975,0.074,2.521-0.048c0.252-0.027,0.38-0.213-0.143,0.055c-0.246,0.135-0.683,0.525-0.926,1.052
			c-0.254,0.514-0.259,1.006-0.258,1.182c0.011,0.076-0.001,0.082,0.005,0.124c0.001,0.028,0.021,0.104-0.008-0.006l-0.11-0.402
			l-0.219-0.803c-0.148-0.535-0.285-1.07-0.449-1.606c-1.236-4.287-2.636-8.579-4.094-12.863c-1.479-4.263-3.025-8.578-4.557-12.769
			L181.982,156.567z"/>
		<g>
			<path style="fill:#407BFF;" d="M180.766,148.347c3.537,1.319,7.101,14,7.101,14l-14.604,9.136c0,0-4.646-12.24-2.844-16.806
				C172.296,149.922,176.73,146.842,180.766,148.347z"/>
			<path style="opacity:0.2;" d="M180.766,148.347c3.537,1.319,7.101,14,7.101,14l-14.604,9.136c0,0-4.646-12.24-2.844-16.806
				C172.296,149.922,176.73,146.842,180.766,148.347z"/>
		</g>
		<path style="fill:#407BFF;" d="M217.95,337.902c-0.034,0.013-0.067,0.024-0.102,0.034c-0.387,0.108-0.768,0.009-1.131-0.297
			c-0.274-0.23-0.304-0.49-0.28-0.668c0.151-1.123,3.055-2.488,3.386-2.639c0.081-0.038,0.166-0.021,0.229,0.035
			c0.063,0.056,0.085,0.144,0.058,0.224C219.743,335.673,218.984,337.511,217.95,337.902z M219.539,334.935
			c-1.146,0.579-2.606,1.5-2.686,2.092c-0.01,0.074-0.004,0.174,0.133,0.29c0.254,0.214,0.499,0.284,0.748,0.214
			C218.316,337.366,218.982,336.409,219.539,334.935z"/>
		<path style="fill:#407BFF;" d="M219.711,334.841c-1.032,0.39-3.11,0.614-3.779-0.017c-0.142-0.134-0.347-0.43-0.122-0.911
			c0.142-0.305,0.383-0.51,0.71-0.606c1.236-0.366,3.41,0.979,3.502,1.036c0.064,0.04,0.101,0.11,0.099,0.185
			s-0.044,0.143-0.11,0.178C219.926,334.753,219.824,334.798,219.711,334.841z M216.578,333.732
			c-0.178,0.067-0.305,0.186-0.387,0.36c-0.115,0.245-0.044,0.357,0.03,0.427c0.452,0.426,2.206,0.335,3.225-0.023
			c-0.748-0.41-2.07-1.002-2.806-0.784C216.618,333.717,216.598,333.724,216.578,333.732z"/>
		<path style="fill:#407BFF;" d="M136.397,404.798c-0.85,0.238-1.671,0.326-2.221,0.054c-0.349-0.173-0.565-0.47-0.642-0.884
			c-0.046-0.247,0.021-0.467,0.193-0.634c0.886-0.867,4.782-0.081,5.222,0.011c0.088,0.018,0.154,0.09,0.165,0.178
			c0.012,0.088-0.033,0.175-0.113,0.215C138.316,404.087,137.338,404.535,136.397,404.798z M134.378,403.456
			c-0.157,0.044-0.279,0.103-0.357,0.179c-0.071,0.069-0.093,0.148-0.073,0.257c0.051,0.28,0.187,0.471,0.414,0.583
			c0.649,0.321,2.078,0.009,3.885-0.836C136.917,403.405,135.188,403.23,134.378,403.456z"/>
		<path style="fill:#407BFF;" d="M138.963,403.754c-0.029,0.008-0.058,0.01-0.088,0.005c-1.148-0.175-3.68-1.454-3.793-2.467
			c-0.027-0.24,0.056-0.571,0.6-0.785c0.402-0.158,0.813-0.146,1.219,0.036c1.325,0.594,2.167,2.84,2.202,2.935
			c0.026,0.07,0.013,0.148-0.034,0.206C139.042,403.719,139.005,403.743,138.963,403.754z M135.956,400.859
			c-0.04,0.011-0.08,0.025-0.12,0.04c-0.359,0.141-0.342,0.296-0.336,0.346c0.068,0.608,1.842,1.675,3.057,2.013
			c-0.288-0.642-0.959-1.943-1.828-2.332C136.467,400.81,136.213,400.788,135.956,400.859z"/>
		<path style="fill:#407BFF;" d="M168.205,147.454c-6.121,0.265-11.131,0.527-16.554,1.5c-1.995,0.353-4.072,0.798-6.029,1.243
			c0,0,0,0-0.001,0.011c-1.487,1.592-4.084,9.634-1.171,15.075c1.92-3.228,5.146-6.043,7.296-6.323
			c2.367,0.641,4.698,4.213,5.266,7.356c3.858-0.699,12.21-9.723,16.954-16.994l1.228-1.88
			C173.041,147.359,170.643,147.351,168.205,147.454z"/>
		<path style="fill:#FFC3BD;" d="M167.695,129.627c-1.367,5.333-3.001,15.027,0.51,18.184c0,0-3.301,5.364-11.68,6.343
			c-9.228,1.079-4.873-4.842-4.873-4.842c6.025-1.933,6.139-6.254,5.356-10.23L167.695,129.627z"/>
		<path style="fill:#FFC3BD;" d="M151.652,149.312c0,0-3.692,3.888-0.184,10.981c7.427-3.45,14.532-7.544,16.737-12.482
			L151.652,149.312z"/>
		<path style="opacity:0.2;" d="M163.338,133.484l-6.326,5.592c0.189,0.941,0.322,1.9,0.332,2.844
			c2.289-0.528,6.069-2.806,6.454-5.165C163.991,135.58,163.498,134.01,163.338,133.484z"/>
		<path style="fill:#FFC3BD;" d="M174.719,123.192c-3.142,8.231-4.296,11.782-9.883,14.762c-8.404,4.484-17.826-1.176-17.206-10.179
			c0.558-8.104,5.602-20.203,14.862-20.971C171.615,106.047,177.861,114.962,174.719,123.192z"/>
		<path style="fill:#263238;" d="M156.033,106.761c3.753-0.873,5.003,3.416-1.58,4.934
			C147.869,113.212,152.936,107.481,156.033,106.761z"/>
		<path style="fill:#263238;" d="M159.93,104.489c-5.372,2.029-2.982,8.171,3.09,9.93c6.071,1.759,4.064,12.088,9.522,14.356
			c5.458,2.269,8.351-15.094,3.642-19.974S163.536,103.128,159.93,104.489z"/>
		<path style="fill:#ED847E;" d="M154.91,120.79c0,0-2.08,2.579-3.801,3.599c0.639,1.124,2.293,1.22,2.293,1.22L154.91,120.79z"/>
		<path style="fill:#263238;" d="M156.291,129.451c-0.33-0.05-0.673-0.128-1.03-0.24c-0.111-0.035-0.173-0.153-0.138-0.264
			c0.035-0.111,0.162-0.17,0.263-0.138c3.008,0.941,5.055-0.718,5.076-0.735c0.089-0.074,0.221-0.061,0.296,0.028
			c0.074,0.09,0.061,0.222-0.028,0.296C160.648,128.466,158.93,129.851,156.291,129.451z"/>
		<path style="fill:#FFC3BD;" d="M174.918,130.69c-1.109,1.451-2.785,2.254-4.276,2.429c-2.243,0.262-3.014-1.828-2.099-3.761
			c0.824-1.74,2.984-3.974,5.094-3.342C175.716,126.638,176.186,129.031,174.918,130.69z"/>
		<path style="fill:#263238;" d="M165.36,120.947c-0.172-0.045-0.303-0.195-0.314-0.381c-0.12-1.942-2.243-3.272-2.264-3.285
			c-0.198-0.122-0.259-0.381-0.137-0.579c0.121-0.197,0.38-0.26,0.579-0.137c0.103,0.063,2.515,1.577,2.662,3.949
			c0.014,0.232-0.162,0.431-0.394,0.446C165.446,120.963,165.401,120.958,165.36,120.947z"/>
		<path style="fill:#263238;" d="M160.758,121.986c-0.231,0.627-0.75,1.013-1.16,0.862c-0.41-0.151-0.555-0.782-0.324-1.408
			c0.231-0.627,0.75-1.012,1.16-0.861C160.844,120.729,160.989,121.36,160.758,121.986z"/>
		<path style="fill:#263238;" d="M153.009,119.256c-0.231,0.627-0.75,1.012-1.16,0.861c-0.41-0.151-0.555-0.782-0.324-1.408
			s0.75-1.012,1.16-0.861C153.095,117.999,153.24,118.629,153.009,119.256z"/>
		<path style="fill:#263238;" d="M152.854,117.949l-1.346-0.989C151.508,116.961,151.847,118.421,152.854,117.949z"/>
		<path style="fill:#263238;" d="M160.602,120.679l-1.345-0.989C159.257,119.691,159.596,121.151,160.602,120.679z"/>
		<path style="fill:#263238;" d="M151.232,113.974c-0.143-0.002-0.282-0.078-0.359-0.211c-0.115-0.201-0.046-0.458,0.156-0.574
			c2.017-1.157,3.757-0.294,3.829-0.257c0.207,0.106,0.289,0.359,0.183,0.566c-0.105,0.206-0.357,0.288-0.564,0.184l0,0
			c-0.057-0.029-1.419-0.687-3.03,0.237C151.38,113.957,151.305,113.975,151.232,113.974z"/>
		<path style="fill:#FFC3BD;" d="M166.646,183.217l-6.042-7.448l-1.695,8.867c0,0,4.389,3.637,7.806,2.245L166.646,183.217z"/>
		<polygon style="fill:#FFC3BD;" points="155.232,174.539 152.312,181.603 158.909,184.636 160.604,175.769 		"/>
	</g>
</g>
<g id="Envelope">
	<g>
		<g>
			
				<rect x="409.625" y="239.359" transform="matrix(0.9954 -0.0957 0.0957 0.9954 -21.639 40.3726)" style="fill:#407BFF;" width="0.949" height="12.864"/>
			
				<rect x="410.918" y="256.652" transform="matrix(0.9954 -0.0957 0.0957 0.9954 -22.911 40.5387)" style="fill:#407BFF;" width="0.949" height="5.192"/>
			
				<rect x="176.139" y="216.98" transform="matrix(-0.9954 0.0957 -0.0957 -0.9954 612.8696 544.1779)" style="fill:#407BFF;" width="234.499" height="139.603"/>
			
				<rect x="176.139" y="216.98" transform="matrix(-0.9954 0.0957 -0.0957 -0.9954 612.8696 544.1779)" style="opacity:0.1;" width="234.499" height="139.603"/>
		</g>
		<polygon style="opacity:0.1;fill:#263238;" points="293.996,293.095 169.999,228.518 403.423,206.082 		"/>
		<path style="fill:#407BFF;" d="M265.75,152.379l-95.751,76.138l233.424-22.435l-108.501-56.507
			C285.497,144.667,274.067,145.766,265.75,152.379z"/>
		<path style="opacity:0.2;fill:#263238;" d="M394.751,206.916l-103.091-53.689c-7.112-3.704-15.737-2.875-22.014,2.116
			l-90.977,72.342L394.751,206.916z"/>
		<polygon style="fill:#FFFFFF;" points="351.643,205.213 383.233,213.646 383.991,221.534 293.996,293.095 192.018,239.985 
			190.503,224.226 		"/>
		<polyline style="fill:#E0E0E0;" points="351.643,205.213 357.606,221.75 383.233,213.646 		"/>
		<polyline style="fill:#F0F0F0;" points="351.643,205.213 354.706,218.851 383.233,213.646 		"/>
		<path style="fill:#407BFF;" d="M312.655,278.236l104.124,66.809L183.355,367.48l89.493-85.418
			C283.646,271.757,300.092,270.176,312.655,278.236z"/>
	</g>
</g>
</svg>
